<svg width="44" height="44" viewBox="0 0 44 44" fill="none" xmlns="http://www.w3.org/2000/svg">
<path d="M19.4722 21.5844C20.9076 20.8719 21.6569 19.7937 21.6569 18.1156C21.6569 14.8062 19.2826 14 16.5427 14H9V30.6125H16.7549C19.6618 30.6125 22.3927 29.1641 22.3927 25.7891C22.3927 23.7031 21.4403 22.1609 19.4722 21.5844ZM12.5163 16.8359H15.816C17.0844 16.8359 18.2264 17.2062 18.2264 18.7344C18.2264 20.1453 17.3372 20.7125 16.0823 20.7125H12.5163V16.8359ZM16.2764 27.7906H12.5163V23.2156H16.3486C17.8969 23.2156 18.8764 23.8859 18.8764 25.5875C18.8764 27.2656 17.7073 27.7906 16.2764 27.7906ZM32.4587 16.5078H25.9722V14.8719H32.4587V16.5078ZM35 24.7719C35 21.2141 32.9958 18.2469 29.3622 18.2469C25.8323 18.2469 23.4354 21.0031 23.4354 24.6125C23.4354 28.3578 25.7059 30.9266 29.3622 30.9266C32.1292 30.9266 33.9212 29.6328 34.7833 26.8813H31.9757C31.6733 27.9078 30.4274 28.4516 29.4615 28.4516C27.5972 28.4516 26.6177 27.3172 26.6177 25.3906H34.9729C34.9865 25.1938 35 24.9828 35 24.7719ZM26.6222 23.3094C26.726 21.7297 27.7372 20.7406 29.2628 20.7406C30.8608 20.7406 31.6642 21.7156 31.7997 23.3094H26.6222Z" fill="#232021"/>
<rect x="1" y="1" width="42" height="42" stroke="#232021" stroke-width="2"/>
</svg>
