<svg width="141" height="74" viewBox="0 0 141 74" fill="none" xmlns="http://www.w3.org/2000/svg">
<path d="M0.118719 11H2.49872C3.25005 11 3.85205 10.762 4.30472 10.286C4.75739 9.81 4.98372 9.18467 4.98372 8.41V3.09C4.98372 2.31067 4.75739 1.68533 4.30472 1.214C3.85205 0.737999 3.25005 0.499999 2.49872 0.499999H0.118719V11ZM1.16872 9.95V1.55H2.49872C2.93272 1.55 3.28039 1.69233 3.54172 1.977C3.80305 2.257 3.93372 2.628 3.93372 3.09V8.41C3.93372 8.872 3.80305 9.24533 3.54172 9.53C3.28039 9.81 2.93272 9.95 2.49872 9.95H1.16872ZM9.18777 11.168C9.90177 11.168 10.4781 10.9417 10.9168 10.489C11.3554 10.0317 11.5748 9.43433 11.5748 8.697V8.557H10.5598V8.732C10.5598 9.15667 10.4361 9.49967 10.1888 9.761C9.9461 10.0223 9.61243 10.153 9.18777 10.153C8.7631 10.153 8.42477 10.0223 8.17277 9.761C7.92077 9.49967 7.79477 9.15667 7.79477 8.732V7.353H11.5748V5.694C11.5748 4.95667 11.3554 4.36167 10.9168 3.909C10.4781 3.45633 9.90177 3.23 9.18777 3.23C8.71643 3.23 8.29877 3.33267 7.93477 3.538C7.57077 3.74333 7.2861 4.03267 7.08077 4.406C6.8801 4.77467 6.77977 5.204 6.77977 5.694V8.697C6.77977 9.43433 7.00377 10.0317 7.45177 10.489C7.89977 10.9417 8.47843 11.168 9.18777 11.168ZM9.18777 4.245C9.61243 4.245 9.9461 4.37567 10.1888 4.637C10.4361 4.89367 10.5598 5.23433 10.5598 5.659V6.373H7.79477V5.659C7.79477 5.23433 7.92077 4.89367 8.17277 4.637C8.42477 4.37567 8.7631 4.245 9.18777 4.245ZM15.3228 11.168C16.0182 11.168 16.5735 10.965 16.9888 10.559C17.4088 10.1483 17.6188 9.56267 17.6188 8.802C17.6188 8.27467 17.5185 7.88033 17.3178 7.619C17.1172 7.353 16.8418 7.15933 16.4918 7.038C16.1418 6.91667 15.7382 6.80933 15.2808 6.716C14.8562 6.62733 14.5272 6.51533 14.2938 6.38C14.0605 6.24467 13.9438 5.97167 13.9438 5.561C13.9438 5.13167 14.0652 4.805 14.3078 4.581C14.5505 4.357 14.8702 4.245 15.2668 4.245C15.6728 4.245 15.9972 4.357 16.2398 4.581C16.4825 4.80033 16.6038 5.09667 16.6038 5.47V5.743H17.6188V5.505C17.6188 4.82367 17.4042 4.27533 16.9748 3.86C16.5502 3.44 15.9762 3.23 15.2528 3.23C14.5575 3.23 13.9952 3.43533 13.5658 3.846C13.1412 4.25667 12.9288 4.847 12.9288 5.617C12.9288 6.135 13.0268 6.52467 13.2228 6.786C13.4235 7.04733 13.7012 7.23867 14.0558 7.36C14.4105 7.47667 14.8188 7.584 15.2808 7.682C15.6962 7.77067 16.0205 7.88267 16.2538 8.018C16.4872 8.15333 16.6038 8.42867 16.6038 8.844C16.6038 9.26867 16.4872 9.593 16.2538 9.817C16.0205 10.041 15.7055 10.153 15.3088 10.153C14.8982 10.153 14.5668 10.041 14.3148 9.817C14.0675 9.593 13.9438 9.29667 13.9438 8.928V8.641H12.9288V8.886C12.9288 9.572 13.1458 10.125 13.5798 10.545C14.0185 10.9603 14.5995 11.168 15.3228 11.168ZM19.2401 2.558H20.2551V0.92H19.2401V2.558ZM19.2401 11H20.2551V3.405H19.2401V11ZM24.2849 13.562C24.9942 13.562 25.5729 13.3333 26.0209 12.876C26.4689 12.4233 26.6929 11.8283 26.6929 11.091V3.405H25.6779V3.909C25.5006 3.69433 25.2836 3.52867 25.0269 3.412C24.7702 3.29067 24.4739 3.23 24.1379 3.23C23.5126 3.23 22.9852 3.43767 22.5559 3.853C22.1312 4.26833 21.9189 4.87033 21.9189 5.659V7.752C21.9189 8.54067 22.1312 9.145 22.5559 9.565C22.9852 9.98033 23.5126 10.188 24.1379 10.188C24.4739 10.188 24.7702 10.1297 25.0269 10.013C25.2836 9.89633 25.5006 9.72833 25.6779 9.509V11.119C25.6779 11.5437 25.5519 11.8867 25.2999 12.148C25.0479 12.414 24.7096 12.547 24.2849 12.547C23.8602 12.547 23.5242 12.414 23.2769 12.148C23.0342 11.8867 22.9129 11.5437 22.9129 11.119V10.902H21.8979V11.084C21.8979 11.826 22.1172 12.4233 22.5559 12.876C22.9992 13.3333 23.5756 13.562 24.2849 13.562ZM24.3199 9.173C23.8859 9.173 23.5452 9.04233 23.2979 8.781C23.0552 8.51967 22.9339 8.17667 22.9339 7.752V5.659C22.9339 5.23433 23.0552 4.89367 23.2979 4.637C23.5452 4.37567 23.8859 4.245 24.3199 4.245C24.7492 4.245 25.0829 4.37567 25.3209 4.637C25.5589 4.89367 25.6779 5.23433 25.6779 5.659V7.759C25.6779 8.18367 25.5589 8.52667 25.3209 8.788C25.0829 9.04467 24.7492 9.173 24.3199 9.173ZM28.6874 11H29.7024V5.659C29.7024 5.23433 29.8237 4.89367 30.0664 4.637C30.309 4.37567 30.6357 4.245 31.0464 4.245C31.443 4.245 31.7604 4.37567 31.9984 4.637C32.241 4.89367 32.3624 5.23433 32.3624 5.659V11H33.3774V5.659C33.3774 4.91233 33.1837 4.322 32.7964 3.888C32.409 3.44933 31.898 3.23 31.2634 3.23C30.596 3.23 30.0757 3.47033 29.7024 3.951V3.405H28.6874V11ZM37.4612 11.168C38.1752 11.168 38.7515 10.9417 39.1902 10.489C39.6289 10.0317 39.8482 9.43433 39.8482 8.697V8.557H38.8332V8.732C38.8332 9.15667 38.7095 9.49967 38.4622 9.761C38.2195 10.0223 37.8859 10.153 37.4612 10.153C37.0365 10.153 36.6982 10.0223 36.4462 9.761C36.1942 9.49967 36.0682 9.15667 36.0682 8.732V7.353H39.8482V5.694C39.8482 4.95667 39.6289 4.36167 39.1902 3.909C38.7515 3.45633 38.1752 3.23 37.4612 3.23C36.9899 3.23 36.5722 3.33267 36.2082 3.538C35.8442 3.74333 35.5595 4.03267 35.3542 4.406C35.1535 4.77467 35.0532 5.204 35.0532 5.694V8.697C35.0532 9.43433 35.2772 10.0317 35.7252 10.489C36.1732 10.9417 36.7519 11.168 37.4612 11.168ZM37.4612 4.245C37.8859 4.245 38.2195 4.37567 38.4622 4.637C38.7095 4.89367 38.8332 5.23433 38.8332 5.659V6.373H36.0682V5.659C36.0682 5.23433 36.1942 4.89367 36.4462 4.637C36.6982 4.37567 37.0365 4.245 37.4612 4.245ZM43.5893 11.168C43.9299 11.168 44.2286 11.1097 44.4853 10.993C44.7419 10.8717 44.9589 10.7013 45.1363 10.482V11H46.1513V0.499999H45.1363V3.916C44.9589 3.70133 44.7419 3.53333 44.4853 3.412C44.2286 3.29067 43.9299 3.23 43.5893 3.23C42.9639 3.23 42.4389 3.43767 42.0143 3.853C41.5896 4.26833 41.3773 4.87033 41.3773 5.659V8.732C41.3773 9.52067 41.5896 10.125 42.0143 10.545C42.4389 10.9603 42.9639 11.168 43.5893 11.168ZM43.7783 10.153C43.3443 10.153 43.0036 10.0223 42.7563 9.761C42.5136 9.49967 42.3923 9.15667 42.3923 8.732V5.659C42.3923 5.23433 42.5136 4.89367 42.7563 4.637C43.0036 4.37567 43.3419 4.245 43.7713 4.245C44.2006 4.245 44.5343 4.37567 44.7723 4.637C45.0149 4.89367 45.1363 5.23433 45.1363 5.659V8.739C45.1363 9.16367 45.0173 9.50667 44.7793 9.768C44.5413 10.0247 44.2076 10.153 43.7783 10.153ZM53.6986 11.168C54.3239 11.168 54.8489 10.9603 55.2736 10.545C55.6982 10.125 55.9106 9.52067 55.9106 8.732V5.659C55.9106 4.87033 55.6982 4.26833 55.2736 3.853C54.8489 3.43767 54.3239 3.23 53.6986 3.23C53.3579 3.23 53.0569 3.29067 52.7956 3.412C52.5389 3.53333 52.3242 3.70133 52.1516 3.916V0.499999H51.1366V11H52.1516V10.489C52.3242 10.7037 52.5389 10.8717 52.7956 10.993C53.0569 11.1097 53.3579 11.168 53.6986 11.168ZM53.5096 10.153C53.0802 10.153 52.7466 10.0247 52.5086 9.768C52.2706 9.50667 52.1516 9.16367 52.1516 8.739V5.659C52.1516 5.23433 52.2706 4.89367 52.5086 4.637C52.7466 4.37567 53.0826 4.245 53.5166 4.245C53.9459 4.245 54.2819 4.37567 54.5246 4.637C54.7719 4.89367 54.8956 5.23433 54.8956 5.659V8.732C54.8956 9.15667 54.7719 9.49967 54.5246 9.761C54.2819 10.0223 53.9436 10.153 53.5096 10.153ZM58.2894 13.52H59.3814L62.3144 3.405H61.1944L59.5424 9.376L57.8694 3.405H56.7634L58.9754 11.154L58.2894 13.52ZM66.4491 11H67.4641V5.659C67.4641 5.23433 67.5854 4.89367 67.8281 4.637C68.0707 4.37567 68.3974 4.245 68.8081 4.245C69.2047 4.245 69.5221 4.37567 69.7601 4.637C70.0027 4.89367 70.1241 5.23433 70.1241 5.659V11H71.1391V5.659C71.1391 5.23433 71.2604 4.89367 71.5031 4.637C71.7457 4.37567 72.0724 4.245 72.4831 4.245C72.8797 4.245 73.1971 4.37567 73.4351 4.637C73.6777 4.89367 73.7991 5.23433 73.7991 5.659V11H74.8141V5.554C74.8141 4.81667 74.6134 4.245 74.2121 3.839C73.8107 3.433 73.3044 3.23 72.6931 3.23C72.2684 3.23 71.9021 3.328 71.5941 3.524C71.2907 3.72 71.0551 3.993 70.8871 4.343C70.7097 3.979 70.4577 3.70367 70.1311 3.517C69.8044 3.32567 69.4334 3.23 69.0181 3.23C68.3507 3.23 67.8327 3.468 67.4641 3.944V3.405H66.4491V11ZM78.9007 11.168C79.6147 11.168 80.191 10.9417 80.6297 10.489C81.0683 10.0317 81.2877 9.43433 81.2877 8.697V8.557H80.2727V8.732C80.2727 9.15667 80.149 9.49967 79.9017 9.761C79.659 10.0223 79.3253 10.153 78.9007 10.153C78.476 10.153 78.1377 10.0223 77.8857 9.761C77.6337 9.49967 77.5077 9.15667 77.5077 8.732V7.353H81.2877V5.694C81.2877 4.95667 81.0683 4.36167 80.6297 3.909C80.191 3.45633 79.6147 3.23 78.9007 3.23C78.4293 3.23 78.0117 3.33267 77.6477 3.538C77.2837 3.74333 76.999 4.03267 76.7937 4.406C76.593 4.77467 76.4927 5.204 76.4927 5.694V8.697C76.4927 9.43433 76.7167 10.0317 77.1647 10.489C77.6127 10.9417 78.1913 11.168 78.9007 11.168ZM78.9007 4.245C79.3253 4.245 79.659 4.37567 79.9017 4.637C80.149 4.89367 80.2727 5.23433 80.2727 5.659V6.373H77.5077V5.659C77.5077 5.23433 77.6337 4.89367 77.8857 4.637C78.1377 4.37567 78.476 4.245 78.9007 4.245ZM83.1107 11.77H84.1257L84.6857 9.264H83.6707L83.1107 11.77ZM91.9573 11.168C92.6713 11.168 93.2476 10.9417 93.6863 10.489C94.125 10.0317 94.3443 9.43433 94.3443 8.697V5.694C94.3443 4.95667 94.125 4.36167 93.6863 3.909C93.2476 3.45633 92.6713 3.23 91.9573 3.23C91.486 3.23 91.0683 3.33267 90.7043 3.538C90.3403 3.74333 90.0556 4.03267 89.8503 4.406C89.6496 4.77467 89.5493 5.204 89.5493 5.694V8.697C89.5493 9.43433 89.7733 10.0317 90.2213 10.489C90.6693 10.9417 91.248 11.168 91.9573 11.168ZM91.9573 10.153C91.5326 10.153 91.1943 10.0223 90.9423 9.761C90.6903 9.49967 90.5643 9.15667 90.5643 8.732V5.659C90.5643 5.23433 90.6903 4.89367 90.9423 4.637C91.1943 4.37567 91.5326 4.245 91.9573 4.245C92.382 4.245 92.7156 4.37567 92.9583 4.637C93.2056 4.89367 93.3293 5.23433 93.3293 5.659V8.732C93.3293 9.15667 93.2056 9.49967 92.9583 9.761C92.7156 10.0223 92.382 10.153 91.9573 10.153ZM98.679 11.168C99.3044 11.168 99.8294 10.9603 100.254 10.545C100.679 10.125 100.891 9.52067 100.891 8.732V5.659C100.891 4.87033 100.679 4.26833 100.254 3.853C99.8294 3.43767 99.3044 3.23 98.679 3.23C98.3384 3.23 98.0374 3.29067 97.776 3.412C97.5194 3.53333 97.3047 3.70133 97.132 3.916V0.499999H96.117V11H97.132V10.489C97.3047 10.7037 97.5194 10.8717 97.776 10.993C98.0374 11.1097 98.3384 11.168 98.679 11.168ZM98.49 10.153C98.0607 10.153 97.727 10.0247 97.489 9.768C97.251 9.50667 97.132 9.16367 97.132 8.739V5.659C97.132 5.23433 97.251 4.89367 97.489 4.637C97.727 4.37567 98.063 4.245 98.497 4.245C98.9264 4.245 99.2624 4.37567 99.505 4.637C99.7524 4.89367 99.876 5.23433 99.876 5.659V8.732C99.876 9.15667 99.7524 9.49967 99.505 9.761C99.2624 10.0223 98.924 10.153 98.49 10.153ZM104.016 11H105.248L107.397 3.405H106.312L104.625 9.474L102.931 3.405H101.846L104.016 11ZM108.545 2.558H109.56V0.92H108.545V2.558ZM108.545 11H109.56V3.405H108.545V11ZM113.737 11.168C114.451 11.168 115.027 10.9417 115.466 10.489C115.904 10.0317 116.124 9.43433 116.124 8.697V5.694C116.124 4.95667 115.904 4.36167 115.466 3.909C115.027 3.45633 114.451 3.23 113.737 3.23C113.265 3.23 112.848 3.33267 112.484 3.538C112.12 3.74333 111.835 4.03267 111.63 4.406C111.429 4.77467 111.329 5.204 111.329 5.694V8.697C111.329 9.43433 111.553 10.0317 112.001 10.489C112.449 10.9417 113.027 11.168 113.737 11.168ZM113.737 10.153C113.312 10.153 112.974 10.0223 112.722 9.761C112.47 9.49967 112.344 9.15667 112.344 8.732V5.659C112.344 5.23433 112.47 4.89367 112.722 4.637C112.974 4.37567 113.312 4.245 113.737 4.245C114.161 4.245 114.495 4.37567 114.738 4.637C114.985 4.89367 115.109 5.23433 115.109 5.659V8.732C115.109 9.15667 114.985 9.49967 114.738 9.761C114.495 10.0223 114.161 10.153 113.737 10.153ZM119.919 11.168C120.587 11.168 121.107 10.9347 121.48 10.468V11H122.495V3.405H121.48V8.739C121.48 9.16367 121.359 9.50667 121.116 9.768C120.874 10.0247 120.549 10.153 120.143 10.153C119.747 10.153 119.427 10.0247 119.184 9.768C118.942 9.50667 118.82 9.16367 118.82 8.739V3.405H117.805V8.739C117.805 9.54167 118.006 10.1483 118.407 10.559C118.813 10.965 119.317 11.168 119.919 11.168ZM126.516 11.168C127.212 11.168 127.767 10.965 128.182 10.559C128.602 10.1483 128.812 9.56267 128.812 8.802C128.812 8.27467 128.712 7.88033 128.511 7.619C128.311 7.353 128.035 7.15933 127.685 7.038C127.335 6.91667 126.932 6.80933 126.474 6.716C126.05 6.62733 125.721 6.51533 125.487 6.38C125.254 6.24467 125.137 5.97167 125.137 5.561C125.137 5.13167 125.259 4.805 125.501 4.581C125.744 4.357 126.064 4.245 126.46 4.245C126.866 4.245 127.191 4.357 127.433 4.581C127.676 4.80033 127.797 5.09667 127.797 5.47V5.743H128.812V5.505C128.812 4.82367 128.598 4.27533 128.168 3.86C127.744 3.44 127.17 3.23 126.446 3.23C125.751 3.23 125.189 3.43533 124.759 3.846C124.335 4.25667 124.122 4.847 124.122 5.617C124.122 6.135 124.22 6.52467 124.416 6.786C124.617 7.04733 124.895 7.23867 125.249 7.36C125.604 7.47667 126.012 7.584 126.474 7.682C126.89 7.77067 127.214 7.88267 127.447 8.018C127.681 8.15333 127.797 8.42867 127.797 8.844C127.797 9.26867 127.681 9.593 127.447 9.817C127.214 10.041 126.899 10.153 126.502 10.153C126.092 10.153 125.76 10.041 125.508 9.817C125.261 9.593 125.137 9.29667 125.137 8.928V8.641H124.122V8.886C124.122 9.572 124.339 10.125 124.773 10.545C125.212 10.9603 125.793 11.168 126.516 11.168ZM130.433 11H131.448V0.499999H130.433V11ZM134.127 13.52H135.219L138.152 3.405H137.032L135.38 9.376L133.707 3.405H132.601L134.813 11.154L134.127 13.52ZM139.678 11H140.728V9.264H139.678V11ZM29.9508 31H31.0008V26.394H32.5408C33.2268 26.394 33.7774 26.177 34.1928 25.743C34.6081 25.3043 34.8158 24.728 34.8158 24.014V22.88C34.8158 22.166 34.6081 21.592 34.1928 21.158C33.7774 20.7193 33.2268 20.5 32.5408 20.5H29.9508V31ZM31.0008 25.344V21.55H32.5408C32.9141 21.55 33.2104 21.6713 33.4298 21.914C33.6538 22.1567 33.7658 22.4787 33.7658 22.88V24.014C33.7658 24.4107 33.6538 24.7327 33.4298 24.98C33.2104 25.2227 32.9141 25.344 32.5408 25.344H31.0008ZM38.4182 31.168C39.1322 31.168 39.7086 30.9417 40.1472 30.489C40.5859 30.0317 40.8052 29.4343 40.8052 28.697V25.694C40.8052 24.9567 40.5859 24.3617 40.1472 23.909C39.7086 23.4563 39.1322 23.23 38.4182 23.23C37.9469 23.23 37.5292 23.3327 37.1652 23.538C36.8012 23.7433 36.5166 24.0327 36.3112 24.406C36.1106 24.7747 36.0102 25.204 36.0102 25.694V28.697C36.0102 29.4343 36.2342 30.0317 36.6822 30.489C37.1302 30.9417 37.7089 31.168 38.4182 31.168ZM38.4182 30.153C37.9936 30.153 37.6552 30.0223 37.4032 29.761C37.1512 29.4997 37.0252 29.1567 37.0252 28.732V25.659C37.0252 25.2343 37.1512 24.8937 37.4032 24.637C37.6552 24.3757 37.9936 24.245 38.4182 24.245C38.8429 24.245 39.1766 24.3757 39.4192 24.637C39.6666 24.8937 39.7902 25.2343 39.7902 25.659V28.732C39.7902 29.1567 39.6666 29.4997 39.4192 29.761C39.1766 30.0223 38.8429 30.153 38.4182 30.153ZM43.0706 31H44.2256L45.3456 25.624L46.4516 31H47.5996L48.8106 23.405H47.7466L46.9766 29.418L45.8146 23.405H44.8556L43.7006 29.404L42.9166 23.405H41.8596L43.0706 31ZM52.2678 31.168C52.9818 31.168 53.5582 30.9417 53.9968 30.489C54.4355 30.0317 54.6548 29.4343 54.6548 28.697V28.557H53.6398V28.732C53.6398 29.1567 53.5162 29.4997 53.2688 29.761C53.0262 30.0223 52.6925 30.153 52.2678 30.153C51.8432 30.153 51.5048 30.0223 51.2528 29.761C51.0008 29.4997 50.8748 29.1567 50.8748 28.732V27.353H54.6548V25.694C54.6548 24.9567 54.4355 24.3617 53.9968 23.909C53.5582 23.4563 52.9818 23.23 52.2678 23.23C51.7965 23.23 51.3788 23.3327 51.0148 23.538C50.6508 23.7433 50.3662 24.0327 50.1608 24.406C49.9602 24.7747 49.8598 25.204 49.8598 25.694V28.697C49.8598 29.4343 50.0838 30.0317 50.5318 30.489C50.9798 30.9417 51.5585 31.168 52.2678 31.168ZM52.2678 24.245C52.6925 24.245 53.0262 24.3757 53.2688 24.637C53.5162 24.8937 53.6398 25.2343 53.6398 25.659V26.373H50.8748V25.659C50.8748 25.2343 51.0008 24.8937 51.2528 24.637C51.5048 24.3757 51.8432 24.245 52.2678 24.245ZM56.3729 31H57.3879V25.722C57.3879 25.2973 57.5092 24.959 57.7519 24.707C57.9946 24.455 58.3212 24.329 58.7319 24.329H59.2709V23.314H58.9419C58.2746 23.314 57.7566 23.5497 57.3879 24.021V23.405H56.3729V31ZM62.5081 31.168C63.2221 31.168 63.7984 30.9417 64.2371 30.489C64.6757 30.0317 64.8951 29.4343 64.8951 28.697V28.557H63.8801V28.732C63.8801 29.1567 63.7564 29.4997 63.5091 29.761C63.2664 30.0223 62.9327 30.153 62.5081 30.153C62.0834 30.153 61.7451 30.0223 61.4931 29.761C61.2411 29.4997 61.1151 29.1567 61.1151 28.732V27.353H64.8951V25.694C64.8951 24.9567 64.6757 24.3617 64.2371 23.909C63.7984 23.4563 63.2221 23.23 62.5081 23.23C62.0367 23.23 61.6191 23.3327 61.2551 23.538C60.8911 23.7433 60.6064 24.0327 60.4011 24.406C60.2004 24.7747 60.1001 25.204 60.1001 25.694V28.697C60.1001 29.4343 60.3241 30.0317 60.7721 30.489C61.2201 30.9417 61.7987 31.168 62.5081 31.168ZM62.5081 24.245C62.9327 24.245 63.2664 24.3757 63.5091 24.637C63.7564 24.8937 63.8801 25.2343 63.8801 25.659V26.373H61.1151V25.659C61.1151 25.2343 61.2411 24.8937 61.4931 24.637C61.7451 24.3757 62.0834 24.245 62.5081 24.245ZM68.6361 31.168C68.9768 31.168 69.2755 31.1097 69.5321 30.993C69.7888 30.8717 70.0058 30.7013 70.1831 30.482V31H71.1981V20.5H70.1831V23.916C70.0058 23.7013 69.7888 23.5333 69.5321 23.412C69.2755 23.2907 68.9768 23.23 68.6361 23.23C68.0108 23.23 67.4858 23.4377 67.0611 23.853C66.6365 24.2683 66.4241 24.8703 66.4241 25.659V28.732C66.4241 29.5207 66.6365 30.125 67.0611 30.545C67.4858 30.9603 68.0108 31.168 68.6361 31.168ZM68.8251 30.153C68.3911 30.153 68.0505 30.0223 67.8031 29.761C67.5605 29.4997 67.4391 29.1567 67.4391 28.732V25.659C67.4391 25.2343 67.5605 24.8937 67.8031 24.637C68.0505 24.3757 68.3888 24.245 68.8181 24.245C69.2475 24.245 69.5811 24.3757 69.8191 24.637C70.0618 24.8937 70.1831 25.2343 70.1831 25.659V28.739C70.1831 29.1637 70.0641 29.5067 69.8261 29.768C69.5881 30.0247 69.2545 30.153 68.8251 30.153ZM78.7455 31.168C79.3708 31.168 79.8958 30.9603 80.3205 30.545C80.7451 30.125 80.9575 29.5207 80.9575 28.732V25.659C80.9575 24.8703 80.7451 24.2683 80.3205 23.853C79.8958 23.4377 79.3708 23.23 78.7455 23.23C78.4048 23.23 78.1038 23.2907 77.8425 23.412C77.5858 23.5333 77.3711 23.7013 77.1985 23.916V20.5H76.1835V31H77.1985V30.489C77.3711 30.7037 77.5858 30.8717 77.8425 30.993C78.1038 31.1097 78.4048 31.168 78.7455 31.168ZM78.5565 30.153C78.1271 30.153 77.7935 30.0247 77.5555 29.768C77.3175 29.5067 77.1985 29.1637 77.1985 28.739V25.659C77.1985 25.2343 77.3175 24.8937 77.5555 24.637C77.7935 24.3757 78.1295 24.245 78.5635 24.245C78.9928 24.245 79.3288 24.3757 79.5715 24.637C79.8188 24.8937 79.9425 25.2343 79.9425 25.659V28.732C79.9425 29.1567 79.8188 29.4997 79.5715 29.761C79.3288 30.0223 78.9905 30.153 78.5565 30.153ZM83.3363 33.52H84.4283L87.3613 23.405H86.2413L84.5893 29.376L82.9163 23.405H81.8103L84.0223 31.154L83.3363 33.52ZM88.8868 27.64H89.9368V25.904H88.8868V27.64ZM88.8868 29.894H89.9368V28.165H88.8868V29.894ZM20.3053 71.182C21.318 71.182 22.2023 70.951 22.9583 70.489C23.719 70.027 24.3093 69.383 24.7293 68.557C25.154 67.731 25.3663 66.7767 25.3663 65.694C25.3663 64.6067 25.1563 63.6617 24.7363 62.859C24.3163 62.0517 23.7283 61.4263 22.9723 60.983C22.2163 60.5397 21.3366 60.318 20.3333 60.318C19.3206 60.318 18.434 60.5443 17.6733 60.997C16.9173 61.445 16.3293 62.0773 15.9093 62.894C15.494 63.706 15.2863 64.6557 15.2863 65.743C15.2863 66.8397 15.4963 67.7963 15.9163 68.613C16.341 69.425 16.9313 70.0573 17.6873 70.51C18.4433 70.958 19.316 71.182 20.3053 71.182ZM20.3053 70.412C19.47 70.412 18.7326 70.2207 18.0933 69.838C17.454 69.4507 16.9546 68.907 16.5953 68.207C16.236 67.507 16.0563 66.6857 16.0563 65.743C16.0563 64.8097 16.2336 63.9953 16.5883 63.3C16.943 62.6 17.44 62.0563 18.0793 61.669C18.7233 61.2817 19.4746 61.088 20.3333 61.088C21.1826 61.088 21.927 61.2793 22.5663 61.662C23.2056 62.04 23.7026 62.5743 24.0573 63.265C24.4166 63.951 24.5963 64.7607 24.5963 65.694C24.5963 66.6227 24.4166 67.4417 24.0573 68.151C23.7026 68.8603 23.2033 69.4157 22.5593 69.817C21.9153 70.2137 21.164 70.412 20.3053 70.412ZM20.3193 69.019C20.7766 69.019 21.1406 68.8743 21.4113 68.585C21.6866 68.2957 21.8243 67.9223 21.8243 67.465V67.22H21.0543V67.465C21.0543 67.6937 20.9866 67.8827 20.8513 68.032C20.7206 68.1767 20.541 68.249 20.3123 68.249C20.093 68.249 19.9156 68.179 19.7803 68.039C19.645 67.8943 19.5773 67.703 19.5773 67.465V64.035C19.5773 63.797 19.645 63.608 19.7803 63.468C19.9156 63.3233 20.093 63.251 20.3123 63.251C20.541 63.251 20.7206 63.3233 20.8513 63.468C20.9866 63.6127 21.0543 63.8017 21.0543 64.035V64.28H21.8243V64.035C21.8243 63.573 21.6866 63.1997 21.4113 62.915C21.1406 62.6257 20.7766 62.481 20.3193 62.481C19.862 62.481 19.4956 62.6233 19.2203 62.908C18.945 63.1927 18.8073 63.5683 18.8073 64.035V67.465C18.8073 67.927 18.945 68.3027 19.2203 68.592C19.4956 68.8767 19.862 69.019 20.3193 69.019ZM29.5043 71.084H30.2043C30.9556 71.084 31.5576 70.846 32.0103 70.37C32.4629 69.894 32.6893 69.2687 32.6893 68.494V60.5H31.6393V68.494C31.6393 68.956 31.5086 69.3293 31.2473 69.614C30.9859 69.894 30.6383 70.034 30.2043 70.034H29.5043V71.084ZM37.01 71.168C37.724 71.168 38.3004 70.9417 38.739 70.489C39.1777 70.0317 39.397 69.4343 39.397 68.697V68.557H38.382V68.732C38.382 69.1567 38.2584 69.4997 38.011 69.761C37.7684 70.0223 37.4347 70.153 37.01 70.153C36.5854 70.153 36.247 70.0223 35.995 69.761C35.743 69.4997 35.617 69.1567 35.617 68.732V67.353H39.397V65.694C39.397 64.9567 39.1777 64.3617 38.739 63.909C38.3004 63.4563 37.724 63.23 37.01 63.23C36.5387 63.23 36.121 63.3327 35.757 63.538C35.393 63.7433 35.1084 64.0327 34.903 64.406C34.7024 64.7747 34.602 65.204 34.602 65.694V68.697C34.602 69.4343 34.826 70.0317 35.274 70.489C35.722 70.9417 36.3007 71.168 37.01 71.168ZM37.01 64.245C37.4347 64.245 37.7684 64.3757 38.011 64.637C38.2584 64.8937 38.382 65.2343 38.382 65.659V66.373H35.617V65.659C35.617 65.2343 35.743 64.8937 35.995 64.637C36.247 64.3757 36.5854 64.245 37.01 64.245ZM43.1451 71.168C43.8404 71.168 44.3958 70.965 44.8111 70.559C45.2311 70.1483 45.4411 69.5627 45.4411 68.802C45.4411 68.2747 45.3408 67.8803 45.1401 67.619C44.9394 67.353 44.6641 67.1593 44.3141 67.038C43.9641 66.9167 43.5604 66.8093 43.1031 66.716C42.6784 66.6273 42.3494 66.5153 42.1161 66.38C41.8828 66.2447 41.7661 65.9717 41.7661 65.561C41.7661 65.1317 41.8874 64.805 42.1301 64.581C42.3728 64.357 42.6924 64.245 43.0891 64.245C43.4951 64.245 43.8194 64.357 44.0621 64.581C44.3048 64.8003 44.4261 65.0967 44.4261 65.47V65.743H45.4411V65.505C45.4411 64.8237 45.2264 64.2753 44.7971 63.86C44.3724 63.44 43.7984 63.23 43.0751 63.23C42.3798 63.23 41.8174 63.4353 41.3881 63.846C40.9634 64.2567 40.7511 64.847 40.7511 65.617C40.7511 66.135 40.8491 66.5247 41.0451 66.786C41.2458 67.0473 41.5234 67.2387 41.8781 67.36C42.2328 67.4767 42.6411 67.584 43.1031 67.682C43.5184 67.7707 43.8428 67.8827 44.0761 68.018C44.3094 68.1533 44.4261 68.4287 44.4261 68.844C44.4261 69.2687 44.3094 69.593 44.0761 69.817C43.8428 70.041 43.5278 70.153 43.1311 70.153C42.7204 70.153 42.3891 70.041 42.1371 69.817C41.8898 69.593 41.7661 69.2967 41.7661 68.928V68.641H40.7511V68.886C40.7511 69.572 40.9681 70.125 41.4021 70.545C41.8408 70.9603 42.4218 71.168 43.1451 71.168ZM49.0854 71.168C49.7527 71.168 50.273 70.9347 50.6464 70.468V71H51.6614V63.405H50.6464V68.739C50.6464 69.1637 50.525 69.5067 50.2824 69.768C50.0397 70.0247 49.7154 70.153 49.3094 70.153C48.9127 70.153 48.593 70.0247 48.3504 69.768C48.1077 69.5067 47.9864 69.1637 47.9864 68.739V63.405H46.9714V68.739C46.9714 69.5417 47.172 70.1483 47.5734 70.559C47.9794 70.965 48.4834 71.168 49.0854 71.168ZM48.9034 62.488H49.6874L50.9194 60.08H49.8484L48.9034 62.488ZM55.6822 71.168C56.3775 71.168 56.9329 70.965 57.3482 70.559C57.7682 70.1483 57.9782 69.5627 57.9782 68.802C57.9782 68.2747 57.8779 67.8803 57.6772 67.619C57.4765 67.353 57.2012 67.1593 56.8512 67.038C56.5012 66.9167 56.0975 66.8093 55.6402 66.716C55.2155 66.6273 54.8865 66.5153 54.6532 66.38C54.4199 66.2447 54.3032 65.9717 54.3032 65.561C54.3032 65.1317 54.4245 64.805 54.6672 64.581C54.9099 64.357 55.2295 64.245 55.6262 64.245C56.0322 64.245 56.3565 64.357 56.5992 64.581C56.8419 64.8003 56.9632 65.0967 56.9632 65.47V65.743H57.9782V65.505C57.9782 64.8237 57.7635 64.2753 57.3342 63.86C56.9095 63.44 56.3355 63.23 55.6122 63.23C54.9169 63.23 54.3545 63.4353 53.9252 63.846C53.5005 64.2567 53.2882 64.847 53.2882 65.617C53.2882 66.135 53.3862 66.5247 53.5822 66.786C53.7829 67.0473 54.0605 67.2387 54.4152 67.36C54.7699 67.4767 55.1782 67.584 55.6402 67.682C56.0555 67.7707 56.3799 67.8827 56.6132 68.018C56.8465 68.1533 56.9632 68.4287 56.9632 68.844C56.9632 69.2687 56.8465 69.593 56.6132 69.817C56.3799 70.041 56.0649 70.153 55.6682 70.153C55.2575 70.153 54.9262 70.041 54.6742 69.817C54.4269 69.593 54.3032 69.2967 54.3032 68.928V68.641H53.2882V68.886C53.2882 69.572 53.5052 70.125 53.9392 70.545C54.3779 70.9603 54.9589 71.168 55.6822 71.168ZM62.8316 71H63.8466V63.79L65.7366 71H66.5626L68.4526 63.79V71H69.4676V60.5H68.3756L66.1496 69.047L63.9236 60.5H62.8316V71ZM73.8831 71.168C74.5971 71.168 75.1734 70.9417 75.6121 70.489C76.0507 70.0317 76.2701 69.4343 76.2701 68.697V65.694C76.2701 64.9567 76.0507 64.3617 75.6121 63.909C75.1734 63.4563 74.5971 63.23 73.8831 63.23C73.4117 63.23 72.9941 63.3327 72.6301 63.538C72.2661 63.7433 71.9814 64.0327 71.7761 64.406C71.5754 64.7747 71.4751 65.204 71.4751 65.694V68.697C71.4751 69.4343 71.6991 70.0317 72.1471 70.489C72.5951 70.9417 73.1737 71.168 73.8831 71.168ZM73.8831 70.153C73.4584 70.153 73.1201 70.0223 72.8681 69.761C72.6161 69.4997 72.4901 69.1567 72.4901 68.732V65.659C72.4901 65.2343 72.6161 64.8937 72.8681 64.637C73.1201 64.3757 73.4584 64.245 73.8831 64.245C74.3077 64.245 74.6414 64.3757 74.8841 64.637C75.1314 64.8937 75.2551 65.2343 75.2551 65.659V68.732C75.2551 69.1567 75.1314 69.4997 74.8841 69.761C74.6414 70.0223 74.3077 70.153 73.8831 70.153ZM78.0428 71H79.0578V65.659C79.0578 65.2343 79.1792 64.8937 79.4218 64.637C79.6645 64.3757 79.9912 64.245 80.4018 64.245C80.7985 64.245 81.1158 64.3757 81.3538 64.637C81.5965 64.8937 81.7178 65.2343 81.7178 65.659V71H82.7328V65.659C82.7328 64.9123 82.5392 64.322 82.1518 63.888C81.7645 63.4493 81.2535 63.23 80.6188 63.23C79.9515 63.23 79.4312 63.4703 79.0578 63.951V63.405H78.0428V71ZM86.6697 73.562C87.379 73.562 87.9577 73.3333 88.4057 72.876C88.8537 72.4233 89.0777 71.8283 89.0777 71.091V63.405H88.0627V63.909C87.8853 63.6943 87.6683 63.5287 87.4117 63.412C87.155 63.2907 86.8587 63.23 86.5227 63.23C85.8973 63.23 85.37 63.4377 84.9407 63.853C84.516 64.2683 84.3037 64.8703 84.3037 65.659V67.752C84.3037 68.5407 84.516 69.145 84.9407 69.565C85.37 69.9803 85.8973 70.188 86.5227 70.188C86.8587 70.188 87.155 70.1297 87.4117 70.013C87.6683 69.8963 87.8853 69.7283 88.0627 69.509V71.119C88.0627 71.5437 87.9367 71.8867 87.6847 72.148C87.4327 72.414 87.0943 72.547 86.6697 72.547C86.245 72.547 85.909 72.414 85.6617 72.148C85.419 71.8867 85.2977 71.5437 85.2977 71.119V70.902H84.2827V71.084C84.2827 71.826 84.502 72.4233 84.9407 72.876C85.384 73.3333 85.9603 73.562 86.6697 73.562ZM86.7047 69.173C86.2707 69.173 85.93 69.0423 85.6827 68.781C85.44 68.5197 85.3187 68.1767 85.3187 67.752V65.659C85.3187 65.2343 85.44 64.8937 85.6827 64.637C85.93 64.3757 86.2707 64.245 86.7047 64.245C87.134 64.245 87.4677 64.3757 87.7057 64.637C87.9437 64.8937 88.0627 65.2343 88.0627 65.659V67.759C88.0627 68.1837 87.9437 68.5267 87.7057 68.788C87.4677 69.0447 87.134 69.173 86.7047 69.173ZM93.2561 71.168C93.9701 71.168 94.5465 70.9417 94.9851 70.489C95.4238 70.0317 95.6431 69.4343 95.6431 68.697V68.557H94.6281V68.732C94.6281 69.1567 94.5045 69.4997 94.2571 69.761C94.0145 70.0223 93.6808 70.153 93.2561 70.153C92.8315 70.153 92.4931 70.0223 92.2411 69.761C91.9891 69.4997 91.8631 69.1567 91.8631 68.732V67.353H95.6431V65.694C95.6431 64.9567 95.4238 64.3617 94.9851 63.909C94.5465 63.4563 93.9701 63.23 93.2561 63.23C92.7848 63.23 92.3671 63.3327 92.0031 63.538C91.6391 63.7433 91.3545 64.0327 91.1491 64.406C90.9485 64.7747 90.8481 65.204 90.8481 65.694V68.697C90.8481 69.4343 91.0721 70.0317 91.5201 70.489C91.9681 70.9417 92.5468 71.168 93.2561 71.168ZM93.2561 64.245C93.6808 64.245 94.0145 64.3757 94.2571 64.637C94.5045 64.8937 94.6281 65.2343 94.6281 65.659V66.373H91.8631V65.659C91.8631 65.2343 91.9891 64.8937 92.2411 64.637C92.4931 64.3757 92.8315 64.245 93.2561 64.245ZM97.4662 71.77H98.4812L99.0412 69.264H98.0262L97.4662 71.77ZM103.751 71H108.721V69.95H104.85V69.824C104.85 69.4553 104.943 69.1077 105.13 68.781C105.316 68.4543 105.557 68.1393 105.851 67.836C106.145 67.528 106.455 67.2247 106.782 66.926C107.113 66.6227 107.426 66.3123 107.72 65.995C108.014 65.673 108.254 65.3347 108.441 64.98C108.627 64.6253 108.721 64.2427 108.721 63.832V62.866C108.721 62.0913 108.494 61.466 108.042 60.99C107.589 60.514 106.987 60.276 106.236 60.276C105.489 60.276 104.887 60.514 104.43 60.99C103.977 61.4613 103.751 62.0867 103.751 62.866V63.216H104.801V62.866C104.801 62.404 104.931 62.033 105.193 61.753C105.454 61.4683 105.802 61.326 106.236 61.326C106.67 61.326 107.017 61.4683 107.279 61.753C107.54 62.033 107.671 62.404 107.671 62.866V63.832C107.671 64.182 107.575 64.5087 107.384 64.812C107.197 65.1153 106.954 65.4117 106.656 65.701C106.362 65.9903 106.047 66.2867 105.711 66.59C105.375 66.8887 105.057 67.213 104.759 67.563C104.465 67.9083 104.222 68.291 104.031 68.711C103.844 69.1263 103.751 69.5953 103.751 70.118V71ZM112.897 71.224C113.648 71.224 114.25 70.986 114.703 70.51C115.155 70.034 115.382 69.4087 115.382 68.634V62.866C115.382 62.0867 115.155 61.4613 114.703 60.99C114.25 60.514 113.648 60.276 112.897 60.276C112.15 60.276 111.548 60.514 111.091 60.99C110.638 61.4613 110.412 62.0867 110.412 62.866V68.634C110.412 69.4087 110.638 70.034 111.091 70.51C111.548 70.986 112.15 71.224 112.897 71.224ZM111.462 68.634V62.866C111.462 62.404 111.592 62.033 111.854 61.753C112.115 61.4683 112.463 61.326 112.897 61.326C113.205 61.326 113.473 61.4007 113.702 61.55L111.581 69.306C111.501 69.1053 111.462 68.8813 111.462 68.634ZM112.897 70.174C112.589 70.174 112.32 70.0993 112.092 69.95L114.213 62.194C114.292 62.3947 114.332 62.6187 114.332 62.866V68.634C114.332 69.096 114.201 69.4693 113.94 69.754C113.678 70.034 113.331 70.174 112.897 70.174ZM117.026 71H121.996V69.95H118.125V69.824C118.125 69.4553 118.218 69.1077 118.405 68.781C118.592 68.4543 118.832 68.1393 119.126 67.836C119.42 67.528 119.73 67.2247 120.057 66.926C120.388 66.6227 120.701 66.3123 120.995 65.995C121.289 65.673 121.529 65.3347 121.716 64.98C121.903 64.6253 121.996 64.2427 121.996 63.832V62.866C121.996 62.0913 121.77 61.466 121.317 60.99C120.864 60.514 120.262 60.276 119.511 60.276C118.764 60.276 118.162 60.514 117.705 60.99C117.252 61.4613 117.026 62.0867 117.026 62.866V63.216H118.076V62.866C118.076 62.404 118.207 62.033 118.468 61.753C118.729 61.4683 119.077 61.326 119.511 61.326C119.945 61.326 120.293 61.4683 120.554 61.753C120.815 62.033 120.946 62.404 120.946 62.866V63.832C120.946 64.182 120.85 64.5087 120.659 64.812C120.472 65.1153 120.23 65.4117 119.931 65.701C119.637 65.9903 119.322 66.2867 118.986 66.59C118.65 66.8887 118.333 67.213 118.034 67.563C117.74 67.9083 117.497 68.291 117.306 68.711C117.119 69.1263 117.026 69.5953 117.026 70.118V71ZM124.366 71H125.416V60.5H124.366V60.654C124.366 60.9807 124.264 61.2373 124.058 61.424C123.853 61.6107 123.564 61.704 123.19 61.704H122.938V62.754H124.366V71Z" fill="#505050"/>
<circle cx="106" cy="26" r="9.5" stroke="#505050"/>
<path d="M104.968 22.5544H102.812V20.6428H106.971V25.1286C106.971 25.802 106.835 26.3848 106.564 26.8772C106.292 27.3624 105.918 27.7316 105.441 27.9851C104.972 28.2385 104.448 28.3652 103.868 28.3652C103.311 28.3652 102.794 28.2276 102.317 27.9525C101.848 27.6773 101.474 27.3081 101.195 26.8446C100.916 26.374 100.777 25.8635 100.777 25.3132H102.779C102.779 25.6463 102.874 25.9251 103.065 26.1495C103.263 26.374 103.527 26.4862 103.857 26.4862C104.209 26.4862 104.481 26.3776 104.671 26.1604C104.869 25.9359 104.968 25.6101 104.968 25.1829V22.5544Z" fill="#505050"/>
<path d="M108.087 31.3571C107.567 31.3571 107.082 31.2413 106.635 31.0096C106.188 30.7706 105.821 30.4448 105.535 30.0321C105.249 29.6193 105.08 29.1632 105.029 28.6635H105.436C105.487 29.0907 105.638 29.4818 105.887 29.8366C106.136 30.1841 106.452 30.4593 106.833 30.662C107.222 30.8575 107.64 30.9553 108.087 30.9553C108.579 30.9553 109.03 30.8358 109.44 30.5968C109.851 30.3579 110.178 30.0284 110.42 29.6085C110.662 29.1885 110.783 28.7178 110.783 28.1965V24.0366H107.35V23.6347H111.179V28.1965C111.179 28.7902 111.039 29.3297 110.761 29.8148C110.489 30.2927 110.115 30.6693 109.638 30.9444C109.169 31.2196 108.652 31.3571 108.087 31.3571Z" fill="#505050"/>
</svg>
