<svg width="44" height="44" viewBox="0 0 44 44" fill="none" xmlns="http://www.w3.org/2000/svg">
<path d="M22 11C15.9247 11 11 15.9877 11 22.1406C11 28.2936 15.9247 33.2812 22 33.2812C28.0753 33.2812 33 28.2936 33 22.1406C33 15.9877 28.0753 11 22 11ZM28.38 23.8117C27.6468 26.7456 25.0068 28.825 22 28.825C18.9932 28.825 16.3532 26.7456 15.62 23.8117C15.5468 23.4775 15.73 23.106 16.06 23.0319C16.39 22.9578 16.7568 23.1433 16.83 23.4775C17.4532 25.8543 19.58 27.5254 22 27.5254C24.42 27.5254 26.5468 25.8543 27.17 23.4775C27.2432 23.1433 27.61 22.9205 27.94 23.0319C28.27 23.106 28.49 23.4775 28.38 23.8117Z" fill="#232021"/>
<rect x="1" y="1" width="42" height="42" stroke="#232021" stroke-width="2"/>
</svg>
