<svg width="44" height="44" viewBox="0 0 44 44" fill="none" xmlns="http://www.w3.org/2000/svg">
<path d="M22.0995 15.8939C18.6668 15.8939 15.8979 18.6633 15.8979 22.0968C15.8979 25.5302 18.6668 28.2997 22.0995 28.2997C25.5322 28.2997 28.301 25.5302 28.301 22.0968C28.301 18.6633 25.5322 15.8939 22.0995 15.8939ZM22.0995 26.1295C19.8812 26.1295 18.0677 24.321 18.0677 22.0968C18.0677 19.8726 19.8758 18.0641 22.0995 18.0641C24.3232 18.0641 26.1313 19.8726 26.1313 22.0968C26.1313 24.321 24.3178 26.1295 22.0995 26.1295ZM30.0012 15.6401C30.0012 16.4445 29.3535 17.0869 28.5547 17.0869C27.7505 17.0869 27.1082 16.4391 27.1082 15.6401C27.1082 14.8411 27.7559 14.1933 28.5547 14.1933C29.3535 14.1933 30.0012 14.8411 30.0012 15.6401ZM34.1085 17.1085C34.0168 15.1704 33.5742 13.4537 32.1547 12.0393C30.7406 10.6249 29.0243 10.1822 27.0866 10.085C25.0896 9.97166 19.104 9.97166 17.1069 10.085C15.1747 10.1768 13.4583 10.6195 12.0388 12.0339C10.6193 13.4483 10.1822 15.1651 10.085 17.1031C9.97166 19.1006 9.97166 25.0876 10.085 27.085C10.1768 29.0231 10.6193 30.7398 12.0388 32.1543C13.4583 33.5687 15.1693 34.0113 17.1069 34.1085C19.104 34.2219 25.0896 34.2219 27.0866 34.1085C29.0243 34.0167 30.7406 33.5741 32.1547 32.1543C33.5688 30.7398 34.0114 29.0231 34.1085 27.085C34.2219 25.0876 34.2219 19.106 34.1085 17.1085ZM31.5286 29.2282C31.1076 30.2864 30.2926 31.1015 29.2294 31.528C27.6371 32.1596 23.859 32.0139 22.0995 32.0139C20.3399 32.0139 16.5564 32.1542 14.9696 31.528C13.9117 31.1069 13.0967 30.2918 12.6703 29.2282C12.0388 27.6357 12.1846 23.8567 12.1846 22.0968C12.1846 20.3369 12.0442 16.5525 12.6703 14.9653C13.0913 13.9072 13.9063 13.092 14.9696 12.6655C16.5618 12.0339 20.3399 12.1797 22.0995 12.1797C23.859 12.1797 27.6425 12.0393 29.2294 12.6655C30.2872 13.0866 31.1022 13.9018 31.5286 14.9653C32.1601 16.5579 32.0144 20.3369 32.0144 22.0968C32.0144 23.8567 32.1601 27.6411 31.5286 29.2282Z" fill="#232021"/>
<rect x="1" y="1" width="42" height="42" stroke="#232021" stroke-width="2"/>
</svg>
