<svg width="44" height="44" viewBox="0 0 44 44" fill="none" xmlns="http://www.w3.org/2000/svg">
<path d="M15.9245 33H11.3634V18.3117H15.9245V33ZM13.6415 16.3081C12.183 16.3081 11 15.1 11 13.6415C11 12.941 11.2783 12.2691 11.7737 11.7737C12.269 11.2783 12.9409 11 13.6415 11C14.342 11 15.0139 11.2783 15.5093 11.7737C16.0046 12.2691 16.2829 12.941 16.2829 13.6415C16.2829 15.1 15.0995 16.3081 13.6415 16.3081ZM32.9951 33H28.4438V25.8498C28.4438 24.1458 28.4095 21.9605 26.0725 21.9605C23.7011 21.9605 23.3377 23.8118 23.3377 25.7271V33H18.7815V18.3117H23.156V20.3153H23.2198C23.8287 19.1613 25.3162 17.9434 27.5354 17.9434C32.1514 17.9434 33 20.9832 33 24.9315V33H32.9951Z" fill="#232021"/>
<rect x="1" y="1" width="42" height="42" stroke="#232021" stroke-width="2"/>
</svg>
