<svg width="125" height="28" viewBox="0 0 125 28" fill="none" xmlns="http://www.w3.org/2000/svg">
<path d="M2.0432 20H3.5432V13.42H5.7432C6.7232 13.42 7.50987 13.11 8.1032 12.49C8.69654 11.8633 8.9932 11.04 8.9932 10.02V8.4C8.9932 7.38 8.69654 6.56 8.1032 5.94C7.50987 5.31333 6.7232 5 5.7432 5H2.0432V20ZM3.5432 11.92V6.5H5.7432C6.27654 6.5 6.69987 6.67333 7.0132 7.02C7.3332 7.36667 7.4932 7.82667 7.4932 8.4V10.02C7.4932 10.5867 7.3332 11.0467 7.0132 11.4C6.69987 11.7467 6.27654 11.92 5.7432 11.92H3.5432ZM14.1396 20.24C15.1596 20.24 15.9829 19.9167 16.6096 19.27C17.2363 18.6167 17.5496 17.7633 17.5496 16.71V12.42C17.5496 11.3667 17.2363 10.5167 16.6096 9.87C15.9829 9.22333 15.1596 8.9 14.1396 8.9C13.4663 8.9 12.8696 9.04667 12.3496 9.34C11.8296 9.63333 11.4229 10.0467 11.1296 10.58C10.8429 11.1067 10.6996 11.72 10.6996 12.42V16.71C10.6996 17.7633 11.0196 18.6167 11.6596 19.27C12.2996 19.9167 13.1263 20.24 14.1396 20.24ZM14.1396 18.79C13.5329 18.79 13.0496 18.6033 12.6896 18.23C12.3296 17.8567 12.1496 17.3667 12.1496 16.76V12.37C12.1496 11.7633 12.3296 11.2767 12.6896 10.91C13.0496 10.5367 13.5329 10.35 14.1396 10.35C14.7463 10.35 15.2229 10.5367 15.5696 10.91C15.9229 11.2767 16.0996 11.7633 16.0996 12.37V16.76C16.0996 17.3667 15.9229 17.8567 15.5696 18.23C15.2229 18.6033 14.7463 18.79 14.1396 18.79ZM20.7859 20H22.4359L24.0359 12.32L25.6159 20H27.2559L28.9859 9.15H27.4659L26.3659 17.74L24.7059 9.15H23.3359L21.6859 17.72L20.5659 9.15H19.0559L20.7859 20ZM33.9248 20.24C34.9448 20.24 35.7681 19.9167 36.3948 19.27C37.0214 18.6167 37.3348 17.7633 37.3348 16.71V16.51H35.8848V16.76C35.8848 17.3667 35.7081 17.8567 35.3548 18.23C35.0081 18.6033 34.5314 18.79 33.9248 18.79C33.3181 18.79 32.8348 18.6033 32.4748 18.23C32.1148 17.8567 31.9348 17.3667 31.9348 16.76V14.79H37.3348V12.42C37.3348 11.3667 37.0214 10.5167 36.3948 9.87C35.7681 9.22333 34.9448 8.9 33.9248 8.9C33.2514 8.9 32.6548 9.04667 32.1348 9.34C31.6148 9.63333 31.2081 10.0467 30.9148 10.58C30.6281 11.1067 30.4848 11.72 30.4848 12.42V16.71C30.4848 17.7633 30.8048 18.6167 31.4448 19.27C32.0848 19.9167 32.9114 20.24 33.9248 20.24ZM33.9248 10.35C34.5314 10.35 35.0081 10.5367 35.3548 10.91C35.7081 11.2767 35.8848 11.7633 35.8848 12.37V13.39H31.9348V12.37C31.9348 11.7633 32.1148 11.2767 32.4748 10.91C32.8348 10.5367 33.3181 10.35 33.9248 10.35ZM39.7891 20H41.2391V12.46C41.2391 11.8533 41.4125 11.37 41.7591 11.01C42.1058 10.65 42.5725 10.47 43.1591 10.47H43.9291V9.02H43.4591C42.5058 9.02 41.7658 9.35667 41.2391 10.03V9.15H39.7891V20ZM48.5537 20.24C49.5737 20.24 50.397 19.9167 51.0237 19.27C51.6503 18.6167 51.9637 17.7633 51.9637 16.71V16.51H50.5137V16.76C50.5137 17.3667 50.337 17.8567 49.9837 18.23C49.637 18.6033 49.1603 18.79 48.5537 18.79C47.947 18.79 47.4637 18.6033 47.1037 18.23C46.7437 17.8567 46.5637 17.3667 46.5637 16.76V14.79H51.9637V12.42C51.9637 11.3667 51.6503 10.5167 51.0237 9.87C50.397 9.22333 49.5737 8.9 48.5537 8.9C47.8803 8.9 47.2837 9.04667 46.7637 9.34C46.2437 9.63333 45.837 10.0467 45.5437 10.58C45.257 11.1067 45.1137 11.72 45.1137 12.42V16.71C45.1137 17.7633 45.4337 18.6167 46.0737 19.27C46.7137 19.9167 47.5403 20.24 48.5537 20.24ZM48.5537 10.35C49.1603 10.35 49.637 10.5367 49.9837 10.91C50.337 11.2767 50.5137 11.7633 50.5137 12.37V13.39H46.5637V12.37C46.5637 11.7633 46.7437 11.2767 47.1037 10.91C47.4637 10.5367 47.947 10.35 48.5537 10.35ZM57.308 20.24C57.7947 20.24 58.2214 20.1567 58.588 19.99C58.9547 19.8167 59.2647 19.5733 59.518 19.26V20H60.968V5H59.518V9.88C59.2647 9.57333 58.9547 9.33333 58.588 9.16C58.2214 8.98667 57.7947 8.9 57.308 8.9C56.4147 8.9 55.6647 9.19667 55.058 9.79C54.4514 10.3833 54.148 11.2433 54.148 12.37V16.76C54.148 17.8867 54.4514 18.75 55.058 19.35C55.6647 19.9433 56.4147 20.24 57.308 20.24ZM57.578 18.79C56.958 18.79 56.4714 18.6033 56.118 18.23C55.7714 17.8567 55.598 17.3667 55.598 16.76V12.37C55.598 11.7633 55.7714 11.2767 56.118 10.91C56.4714 10.5367 56.9547 10.35 57.568 10.35C58.1814 10.35 58.658 10.5367 58.998 10.91C59.3447 11.2767 59.518 11.7633 59.518 12.37V16.77C59.518 17.3767 59.348 17.8667 59.008 18.24C58.668 18.6067 58.1914 18.79 57.578 18.79ZM71.7499 20.24C72.6433 20.24 73.3933 19.9433 73.9999 19.35C74.6066 18.75 74.9099 17.8867 74.9099 16.76V12.37C74.9099 11.2433 74.6066 10.3833 73.9999 9.79C73.3933 9.19667 72.6433 8.9 71.7499 8.9C71.2633 8.9 70.8333 8.98667 70.4599 9.16C70.0933 9.33333 69.7866 9.57333 69.5399 9.88V5H68.0899V20H69.5399V19.27C69.7866 19.5767 70.0933 19.8167 70.4599 19.99C70.8333 20.1567 71.2633 20.24 71.7499 20.24ZM71.4799 18.79C70.8666 18.79 70.3899 18.6067 70.0499 18.24C69.7099 17.8667 69.5399 17.3767 69.5399 16.77V12.37C69.5399 11.7633 69.7099 11.2767 70.0499 10.91C70.3899 10.5367 70.8699 10.35 71.4899 10.35C72.1033 10.35 72.5833 10.5367 72.9299 10.91C73.2833 11.2767 73.4599 11.7633 73.4599 12.37V16.76C73.4599 17.3667 73.2833 17.8567 72.9299 18.23C72.5833 18.6033 72.0999 18.79 71.4799 18.79ZM78.3082 23.6H79.8682L84.0582 9.15H82.4582L80.0982 17.68L77.7082 9.15H76.1282L79.2882 20.22L78.3082 23.6ZM86.2376 15.2H87.7376V12.72H86.2376V15.2ZM86.2376 18.42H87.7376V15.95H86.2376V18.42Z" fill="#232021"/>
<circle cx="111" cy="14" r="13.5" stroke="#232021"/>
<path d="M109.556 9.17621H106.537V6.49998H112.359V12.78C112.359 13.7227 112.169 14.5388 111.789 15.2281C111.409 15.9073 110.885 16.4243 110.218 16.7791C109.561 17.1339 108.827 17.3113 108.015 17.3113C107.235 17.3113 106.511 17.1187 105.844 16.7335C105.187 16.3483 104.663 15.8313 104.273 15.1825C103.883 14.5236 103.688 13.8089 103.688 13.0385H106.491C106.491 13.5048 106.624 13.8951 106.891 14.2093C107.168 14.5236 107.538 14.6807 108 14.6807C108.493 14.6807 108.873 14.5286 109.14 14.2245C109.417 13.9103 109.556 13.4541 109.556 12.856V9.17621Z" fill="#232021"/>
<path d="M113.922 21.5C113.193 21.5 112.515 21.3378 111.889 21.0134C111.263 20.6789 110.749 20.2227 110.349 19.6449C109.948 19.0671 109.712 18.4284 109.64 17.7289H110.21C110.282 18.327 110.493 18.8744 110.842 19.3712C111.191 19.8578 111.632 20.243 112.166 20.5268C112.71 20.8005 113.296 20.9374 113.922 20.9374C114.61 20.9374 115.242 20.7701 115.817 20.4356C116.392 20.101 116.848 19.6398 117.187 19.0518C117.526 18.4639 117.696 17.805 117.696 17.0751V11.2513H112.89V10.6886H118.25V17.0751C118.25 17.9063 118.055 18.6616 117.665 19.3408C117.285 20.0098 116.761 20.537 116.094 20.9222C115.437 21.3074 114.713 21.5 113.922 21.5Z" fill="#232021"/>
</svg>
