<svg width="14" height="14" viewBox="0 0 14 14" fill="none" xmlns="http://www.w3.org/2000/svg">
<path d="M14 6.63035C14 6.23662 13.8848 5.85917 13.8158 5.48397C13.7449 5.09838 13.7339 4.70013 13.5959 4.34031C13.4555 3.97415 13.2589 3.62698 13.0561 3.29383C12.8514 2.95796 12.5887 2.65735 12.3273 2.36172C12.0651 2.06518 11.7719 1.79847 11.4596 1.5494C11.1483 1.30123 10.8141 1.0838 10.4605 0.889419C10.1097 0.696849 9.77504 0.452747 9.38901 0.319846C9.01012 0.188754 8.58124 0.210452 8.17522 0.143098C7.78014 0.0775519 7.38554 0.013814 6.97047 0.013814C6.5554 0.013814 6.14128 -0.02913 5.7462 0.0364161C5.34017 0.10377 4.94415 0.223561 4.56525 0.354654C4.17969 0.488006 3.79175 0.632659 3.44142 0.825229C3.08775 1.01961 2.75884 1.26326 2.44754 1.51143C2.13528 1.7605 1.82874 2.02811 1.56647 2.3242C1.30514 2.61984 1.06952 2.94666 0.864844 3.28298C0.662069 3.61614 0.529266 3.98952 0.389322 4.35568C0.251284 4.7155 0.0989637 5.08211 0.027564 5.4677C-0.0414553 5.84289 0.0408916 6.23662 0.0408916 6.63035C0.0408916 7.02408 0.0604076 7.40108 0.129904 7.77628C0.200827 8.16187 0.237002 8.55062 0.375042 8.91045C0.515461 9.2766 0.711097 9.61835 0.913872 9.9515C1.11855 10.2874 1.37892 10.5826 1.64024 10.8782C1.90252 11.1747 2.11291 11.526 2.42516 11.775C2.73647 12.0232 3.1106 12.2036 3.46427 12.398C3.81508 12.5905 4.18921 12.7474 4.57477 12.8807C4.95366 13.0118 5.36112 13.0394 5.76762 13.1068C6.1627 13.1723 6.5554 13.2632 6.97047 13.2632C7.38506 13.2632 7.79013 13.2365 8.18474 13.1705C8.59076 13.1031 8.96775 12.9616 9.34665 12.8306C9.7322 12.6972 10.0982 12.5449 10.4491 12.3523C10.8027 12.1579 11.1926 12.0092 11.5039 11.7606C11.8161 11.5115 12.1008 11.2235 12.363 10.927C12.6244 10.6314 12.88 10.3186 13.0847 9.98224C13.2874 9.64908 13.3807 9.26033 13.5211 8.89417C13.6592 8.53435 13.8053 8.17226 13.8762 7.78667C13.9453 7.41148 14 7.02408 14 6.63035Z" fill="#D93A26"/>
</svg>
