<svg width="197" height="239" viewBox="0 0 197 239" fill="none" xmlns="http://www.w3.org/2000/svg">
<path d="M70.2188 82.6975C70.2188 78.9444 71.2619 75.3464 71.8869 71.77C72.5292 68.0945 72.6283 64.2983 73.8784 60.8683C75.15 57.3781 76.9303 54.0688 78.7666 50.8931C80.6201 47.6915 82.9995 44.8261 85.366 42.008C87.7411 39.1814 90.3964 36.6391 93.2241 34.2648C96.0432 31.8992 99.0692 29.8266 102.272 27.9738C105.449 26.1381 108.479 23.8113 111.975 22.5445C115.406 21.2949 119.29 21.5017 122.967 20.8597C126.545 20.2349 130.118 19.6273 133.877 19.6273C137.636 19.6273 141.386 19.2179 144.964 19.8427C148.64 20.4848 152.227 21.6267 155.658 22.8763C159.15 24.1474 162.663 25.5263 165.835 27.3619C169.038 29.2147 172.017 31.5373 174.836 33.9029C177.663 36.2771 180.439 38.828 182.814 41.6504C185.181 44.4684 187.315 47.5838 189.168 50.7897C191.004 53.9654 192.207 57.5246 193.474 61.0149C194.724 64.4448 196.104 67.9393 196.75 71.6149C197.375 75.1913 196.63 78.9444 196.63 82.6975C196.63 86.4506 196.453 90.0443 195.824 93.6207C195.181 97.2963 194.854 101.002 193.604 104.432C192.332 107.922 190.56 111.18 188.724 114.355C186.871 117.557 184.513 120.371 182.146 123.189C179.771 126.015 177.866 129.364 175.038 131.738C172.219 134.103 168.831 135.823 165.628 137.676C162.451 139.511 159.063 141.006 155.572 142.278C152.141 143.527 148.451 143.79 144.77 144.432C141.192 145.057 137.636 145.923 133.877 145.923C130.122 145.923 126.454 145.669 122.881 145.04C119.204 144.398 115.79 143.049 112.359 141.799C108.867 140.528 105.552 139.076 102.375 137.24C99.1727 135.387 95.6423 133.97 92.8232 131.6C89.9955 129.226 87.4178 126.481 85.0427 123.654C82.6762 120.836 80.3615 117.854 78.5079 114.648C76.6716 111.473 75.8268 107.767 74.5552 104.277C73.3051 100.847 71.9818 97.3954 71.3395 93.7198C70.7145 90.1434 70.2188 86.4506 70.2188 82.6975Z" fill="white"/>
<path d="M41.1269 0L41.1872 0.935044L30.3548 24.5912L31.0316 24.5481C33.9412 24.3585 36.1784 23.4494 37.7431 21.8163C39.3078 20.1832 40.4458 17.6236 41.1571 14.1334L41.8855 14.086L41.7433 24.7894L19.9147 26.2071L19.863 25.4272L30.898 1.60293L30.3247 1.6374C26.8245 1.86578 24.4278 2.59399 23.1347 3.82636C21.8415 5.05872 20.7768 7.57946 19.9449 11.3886L19.2681 11.4317L19.2983 1.41334L41.1269 0Z" fill="#232021"/>
<path d="M61.6407 24.8024C60.3001 21.8809 60.3131 18.4811 61.6881 14.6031C63.0589 10.725 65.2961 8.1741 68.3996 6.95467C71.5032 5.73092 74.887 5.7697 78.551 7.0667C85.9823 9.69517 88.2281 14.6849 85.297 22.0403L71.4515 17.1454L70.7748 19.0585C69.6411 22.2644 69.1928 24.8325 69.4299 26.7543C69.667 28.6804 70.8049 30.0033 72.8352 30.7186C76.6328 32.063 79.8355 30.9125 82.452 27.2714L83.284 27.7325C81.827 29.8697 80.0597 31.3046 77.9734 32.0414C75.8914 32.7783 73.2275 32.5714 69.9859 31.4253C65.7659 29.9344 62.9813 27.7282 61.6407 24.8024ZM71.8481 16.1802L76.9044 17.9684L77.7535 15.564C78.6932 12.914 79.176 11.0525 79.2062 9.97525C79.2364 8.90232 78.7837 8.19565 77.8527 7.86817C76.9173 7.53638 76.0509 7.81215 75.2448 8.68687C74.4387 9.56159 73.5895 11.2593 72.6973 13.7801L71.8481 16.1802Z" fill="#232021"/>
<path d="M121.553 36.6649C120.609 35.7945 119.217 35.6394 117.372 36.1996C115.527 36.764 113.824 37.8844 112.268 39.5649L102.789 49.8073L105.505 52.3194L104.867 53.0088L92.9396 41.9779L93.5775 41.2885L95.6811 43.2318L111.242 26.4182L109.139 24.4749L109.777 23.7855L118.988 32.3043L115.591 35.9712C117.126 34.9801 118.686 34.5665 120.281 34.7388C121.872 34.9112 123.269 35.5489 124.467 36.6563C125.665 37.7637 126.325 39.0047 126.454 40.3749C126.579 41.7452 126.075 43.0508 124.928 44.2832C123.786 45.5198 122.626 46.2093 121.454 46.3515C120.281 46.4937 119.113 46.0326 117.954 44.9597C116.794 43.8868 116.294 42.7147 116.454 41.4436C116.613 40.1724 117.523 39.0521 119.178 38.0783L120.553 39.3494C122.389 38.6471 122.725 37.7465 121.553 36.6649Z" fill="#232021"/>
<path d="M122.993 71.5416C124.126 68.6116 126.592 66.3106 130.385 64.6344C134.179 62.9582 137.584 62.7557 140.593 64.0268C143.601 65.298 145.976 67.9006 147.718 71.8347C149.459 75.7687 149.809 79.1254 148.778 81.8961C147.744 84.6667 145.291 86.9074 141.416 88.618C133.316 92.1945 127.484 89.9495 123.924 81.8875C122.169 77.9189 121.859 74.4717 122.993 71.5416ZM135.088 80.487L139.136 78.6988C142.218 77.3372 144.39 76.1781 145.657 75.2215C146.925 74.2649 147.291 73.1834 146.757 71.9768C146.446 71.2788 146.002 70.8005 145.416 70.5506C144.83 70.2964 144.032 70.2791 143.028 70.4946C141.472 70.8393 139.235 71.658 136.312 72.9464L132.597 74.5881C129.135 76.1178 127.101 77.139 126.493 77.6518C125.885 78.1645 125.407 78.6342 125.062 79.0522C124.454 79.7373 124.376 80.5905 124.825 81.6031C125.372 82.8397 126.445 83.3353 128.04 83.0854C129.183 82.9259 131.532 82.0555 135.088 80.487Z" fill="#232021"/>
<path d="M144.679 119.712L144.662 121.22L148.671 121.267C151.968 121.306 154.184 121.146 155.317 120.797C156.451 120.444 157.02 119.75 157.033 118.708C157.042 118.083 156.882 117.518 156.559 117.01C156.236 116.501 155.787 116.247 155.214 116.238C154.641 116.23 154.059 116.329 153.464 116.531L153.447 117.833C152.714 118.1 151.835 118.229 150.813 118.221C149.787 118.208 148.908 117.764 148.171 116.889C147.433 116.014 147.071 114.916 147.089 113.597C147.123 110.611 148.58 109.137 151.464 109.172C155.736 109.219 157.826 112.873 157.744 120.125C157.697 124.253 156.96 127.101 155.537 128.666C154.115 130.23 151.524 130.988 147.778 130.945L137.205 130.824C135.398 130.803 134.489 131.294 134.48 132.302C134.467 133.483 136.248 134.198 139.821 134.448L139.761 135.228C136.705 135.056 134.614 134.457 133.48 133.436C132.347 132.414 131.791 130.76 131.821 128.472C131.868 124.309 133.179 121.926 135.756 121.332C134.441 120.866 133.476 120.177 132.864 119.268C132.247 118.358 131.95 117.036 131.972 115.299C132.032 110.163 134.161 107.621 138.36 107.668C140.825 107.698 142.507 108.698 143.403 110.667C144.3 112.632 144.726 115.648 144.679 119.712ZM134.808 117.798C134.286 117.984 134.019 118.346 134.015 118.884C134.01 119.423 134.446 119.931 135.325 120.41C136.205 120.888 137.424 121.138 138.989 121.155L143.834 121.211L143.838 120.845C143.864 118.695 142.295 117.6 139.136 117.561L138.304 117.553C136.493 117.531 135.329 117.613 134.808 117.798Z" fill="#232021"/>
<path d="M152.019 156.88L146.506 168.152L142.199 166.05C143.389 167.247 144.169 168.579 144.54 170.035C144.911 171.492 144.583 173.263 143.562 175.353C141.199 180.187 137.41 181.329 132.203 178.783L118.121 171.901L116.841 174.521L116 174.112L122.474 160.875L123.315 161.288L122.375 163.206L137.583 170.639C139.454 171.552 140.725 172.017 141.393 172.035C142.062 172.052 142.557 171.733 142.876 171.078C143.363 170.078 143.139 168.881 142.204 167.476C141.268 166.071 139.863 164.912 137.992 163.999L125.078 157.686L124.095 159.698L123.255 159.285L129.751 146L130.591 146.414L129.333 148.986L149.92 159.048L151.178 156.475L152.019 156.88Z" fill="#232021"/>
<path d="M123.402 203.473L113.897 211.984L97.9829 194.222L95.8104 196.165L95.1854 195.467L106.707 185.152L107.332 185.85L105.199 187.759L120.488 204.822L122.777 202.771L123.402 203.473ZM119.941 211.393C121.312 210.165 122.6 209.639 123.807 209.816C125.014 209.993 126.079 210.6 127.01 211.635C127.937 212.669 128.385 213.806 128.351 215.043C128.32 216.284 127.657 217.482 126.364 218.641C125.07 219.8 123.816 220.373 122.6 220.369C121.385 220.364 120.273 219.8 119.264 218.675C118.255 217.551 117.777 216.361 117.82 215.112C117.863 213.862 118.57 212.621 119.941 211.393Z" fill="#232021"/>
<path d="M92.1378 228.556L80.064 231.981L78.7579 227.375C78.6243 231.094 76.6759 233.485 72.9171 234.554C69.1583 235.618 66.3694 234.463 64.5417 231.085C64.3952 235.024 62.4555 237.523 58.7139 238.583C53.8042 239.975 50.5584 237.885 48.9721 232.309L44.6917 217.236L41.8855 218.033L41.6312 217.133L55.5069 213.194L55.7612 214.095L54.0068 214.59L58.6277 230.865C59.3475 233.403 59.9855 234.825 60.5459 235.14C60.8045 235.282 61.0976 235.308 61.4339 235.213C62.4037 234.937 63.0675 234.045 63.4339 232.533C63.8003 231.021 63.6969 229.267 63.1279 227.263L59.1191 213.138L57.3173 213.651L57.063 212.751L69.9386 209.097L70.1929 209.997L68.4385 210.493L73.0594 226.768C73.7792 229.306 74.4172 230.728 74.9776 231.042C75.2362 231.184 75.5293 231.21 75.8655 231.115C76.8009 230.848 77.4432 229.9 77.7924 228.267C78.1415 226.634 78.0337 224.833 77.4777 222.864L73.5508 209.041L71.7447 209.553L71.4903 208.653L85.366 204.714L85.6246 205.615L82.8702 206.395L89.1291 228.431L91.8835 227.651L92.1378 228.556Z" fill="#232021"/>
<path d="M14.0394 224.036L12.5695 223.682L11.6385 227.582C10.8712 230.788 10.5307 232.981 10.6255 234.166C10.716 235.347 11.2678 236.062 12.285 236.303C12.8928 236.45 13.4791 236.42 14.0481 236.217C14.6127 236.015 14.9662 235.635 15.0998 235.075C15.2335 234.519 15.2679 233.929 15.2033 233.309L13.936 233.007C13.8368 232.236 13.9058 231.348 14.1429 230.353C14.38 229.357 15.0093 228.599 16.0266 228.073C17.0439 227.547 18.1948 227.44 19.4793 227.75C22.3846 228.444 23.5011 230.193 22.8286 232.994C21.8329 237.144 17.8112 238.376 10.7505 236.687C6.73307 235.726 4.12088 234.377 2.90962 232.641C1.70266 230.904 1.53024 228.215 2.40528 224.57L4.8666 214.293C5.28903 212.539 5.00885 211.544 4.03036 211.307C2.88375 211.031 1.78887 212.608 0.754345 216.038L0 215.806C0.844866 212.867 1.89233 210.958 3.13807 210.079C4.38382 209.2 6.12097 209.028 8.34952 209.558C12.4014 210.527 14.4317 212.333 14.4403 214.978C15.186 213.802 16.0697 213.013 17.0956 212.617C18.1215 212.221 19.475 212.221 21.1648 212.626C26.1607 213.823 28.1737 216.461 27.1952 220.545C26.6219 222.941 25.2727 224.359 23.1519 224.798C21.0268 225.234 17.9922 224.979 14.0394 224.036ZM18.0913 214.832C18.0267 214.28 17.7336 213.944 17.2077 213.819C16.6861 213.694 16.0913 214.009 15.4317 214.759C14.7679 215.508 14.255 216.646 13.8929 218.163L12.7635 222.872L13.117 222.958C15.2119 223.458 16.6258 222.174 17.3586 219.102L17.5525 218.292C17.9793 216.538 18.156 215.383 18.0913 214.832Z" fill="#232021"/>
</svg>
