<svg width="51" height="63" viewBox="0 0 51 63" fill="none" xmlns="http://www.w3.org/2000/svg">
<path d="M19.3613 16.129L19.3613 16.129C19.2081 16.5568 19.1236 17.013 19.0567 17.4919C19.0332 17.66 19.0116 17.8336 18.9897 18.0098C18.9506 18.3249 18.9104 18.6479 18.8567 18.9607L18.6103 18.9185L18.8567 18.9607C18.8089 19.2392 18.7537 19.5112 18.699 19.78C18.5617 20.4557 18.4285 21.1113 18.4285 21.7989C18.4285 22.7675 18.5542 23.7249 18.715 24.6621L18.4688 24.7044L18.715 24.6621C18.8643 25.5318 19.1597 26.354 19.4607 27.1917C19.4859 27.262 19.5112 27.3324 19.5365 27.4029L19.5365 27.403C19.6357 27.6803 19.7277 27.9712 19.818 28.2566C19.8772 28.4439 19.9357 28.6289 19.995 28.8059C20.1485 29.2645 20.316 29.7001 20.5418 30.0977L20.3244 30.2211L20.5418 30.0977C21.011 30.9241 21.5996 31.6971 22.209 32.4359C22.8184 33.1744 23.4755 33.8862 24.1928 34.4995L24.193 34.4996C24.5383 34.7952 24.9316 35.0351 25.35 35.2649C25.4996 35.3471 25.6554 35.4295 25.8133 35.513C26.0865 35.6575 26.3659 35.8052 26.6302 35.9609M19.3613 16.129L26.5033 36.1763M19.3613 16.129C19.683 15.23 20.1351 14.3729 20.6087 13.5389L19.3613 16.129ZM26.6302 35.9609L26.5033 36.1763M26.6302 35.9609C26.6301 35.9609 26.6301 35.9609 26.6301 35.9609L26.5033 36.1763M26.6302 35.9609C27.4366 36.4354 28.2806 36.8122 29.1747 37.1436L29.1747 37.1436C29.2786 37.1822 29.3819 37.2208 29.4849 37.2594C30.2724 37.5541 31.0381 37.8407 31.8555 37.986L31.8559 37.9861C32.7633 38.1488 33.6978 38.215 34.6585 38.215C35.3977 38.215 36.1003 38.0798 36.8256 37.9401C37.0265 37.9015 37.2291 37.8624 37.4347 37.8259L37.4347 37.8259C37.7087 37.7772 37.9764 37.7373 38.2385 37.6982C38.9212 37.5964 39.5664 37.5002 40.188 37.2697L40.188 37.2697C41.0817 36.9384 41.9448 36.5502 42.7516 36.0756M26.5033 36.1763C27.3257 36.6602 28.1839 37.043 29.0878 37.378C29.1908 37.4163 29.2939 37.4548 29.3969 37.4934C30.1821 37.7874 30.9703 38.0826 31.8118 38.2322C32.7369 38.398 33.6865 38.465 34.6585 38.465C35.4239 38.465 36.1569 38.3238 36.8856 38.1833C37.0834 38.1452 37.2808 38.1072 37.4784 38.072C37.7365 38.0262 37.9947 37.9877 38.2517 37.9494C38.9438 37.8462 39.6272 37.7443 40.2749 37.5041C41.1788 37.169 42.056 36.7749 42.8784 36.291M42.7516 36.0756C42.7516 36.0756 42.7516 36.0756 42.7515 36.0756L42.8784 36.291M42.7516 36.0756L42.8784 36.291M42.7516 36.0756C42.921 35.9758 43.0905 35.8785 43.2588 35.7818C43.9311 35.3956 44.5859 35.0196 45.152 34.5358M42.8784 36.291C43.0422 36.1946 43.2079 36.0995 43.3739 36.0041C44.0483 35.6169 44.7288 35.2263 45.3145 34.7259M45.3145 34.7259L45.152 34.5358M45.3145 34.7259C45.7958 34.3143 46.174 33.7918 46.5513 33.2703C46.7478 32.9988 46.9441 32.7275 47.1546 32.4724M45.3145 34.7259L45.1521 34.5358C45.1521 34.5358 45.152 34.5358 45.152 34.5358M45.152 34.5358C45.4963 34.2415 45.7892 33.8826 46.0779 33.4946C46.1655 33.3769 46.2537 33.255 46.3429 33.1317C46.5418 32.8569 46.7461 32.5747 46.9618 32.3133M47.1546 32.4724L46.9618 32.3133M47.1546 32.4724C47.7673 31.7295 48.3777 30.9878 48.8575 30.1439M47.1546 32.4724L46.9618 32.3133C46.9618 32.3133 46.9618 32.3133 46.9618 32.3133M46.9618 32.3133C47.5765 31.568 48.1727 30.8425 48.6401 30.0205M48.8575 30.1439L48.6401 30.0205M48.8575 30.1439L48.6402 30.0203C48.6402 30.0204 48.6402 30.0204 48.6401 30.0205M48.8575 30.1439C49.3329 29.3068 49.7916 28.4481 50.1208 27.5281C50.3639 26.8488 50.4722 26.1285 50.5816 25.4013C50.6178 25.1606 50.6541 24.9192 50.6955 24.6783L50.689 18.9199M48.6401 30.0205C49.1142 29.1856 49.5638 28.3425 49.8854 27.4439L49.8854 27.4438C50.1196 26.7896 50.2229 26.1034 50.3313 25.383C50.3682 25.138 50.4057 24.889 50.4491 24.636L50.4491 24.6357C50.6087 23.7126 50.6542 22.7811 50.6542 21.7989C50.6542 21.4391 50.6794 21.0747 50.7037 20.7227C50.7134 20.5816 50.7231 20.4425 50.7309 20.3065C50.7586 19.8222 50.7649 19.3623 50.689 18.9199M50.689 18.9199C50.689 18.9199 50.689 18.92 50.689 18.9201L50.9354 18.8776L50.689 18.9199ZM50.689 18.9199C50.5451 18.0873 50.2573 17.2906 49.9665 16.4858C49.9283 16.3799 49.8899 16.2739 49.8519 16.1677L49.8518 16.1674C49.8177 16.0716 49.7838 15.976 49.75 15.8806C49.4562 15.0508 49.1695 14.2412 48.7551 13.5115L48.9725 13.3881M50.689 18.9199L50.0873 16.0834C50.0532 15.9878 50.0193 15.892 49.9853 15.7961C49.6927 14.9695 49.3985 14.1382 48.9725 13.3881M48.9725 13.3881L48.7551 13.5115C48.2814 12.6773 47.737 11.8683 47.1347 11.138M48.9725 13.3881C48.4926 12.543 47.9402 11.7218 47.3276 10.979M47.1347 11.138L37.5286 5.23052C38.4805 5.39976 39.409 5.70075 40.2973 6.03014C41.2012 6.36522 42.1106 6.72868 42.932 7.21255M47.1347 11.138C46.533 10.41 45.8266 9.74831 45.0996 9.12677M47.1347 11.138L47.3276 10.979M47.1347 11.138C47.1348 11.1381 47.1348 11.1382 47.1349 11.1382L47.3276 10.979M47.1347 11.138L45.0996 9.12677M47.3276 10.979C46.7127 10.235 45.9941 9.56259 45.262 8.93674M45.262 8.93674C44.5322 8.31317 43.7611 7.70096 42.932 7.21255M45.262 8.93674L45.0996 9.12677M45.262 8.93674L45.0996 9.12681C45.0996 9.1268 45.0996 9.12678 45.0996 9.12677M42.932 7.21255L42.8051 7.42795C43.6153 7.9052 44.3733 8.50619 45.0996 9.12677M42.932 7.21255L45.0996 9.12677M24.0304 34.6895C23.2983 34.0637 22.631 33.3401 22.0161 32.595L24.0304 34.6895ZM20.6087 13.5388C21.0763 12.7165 21.6786 11.9769 22.2927 11.2324L20.6087 13.5388ZM22.2927 11.2323C22.8962 10.501 23.5727 9.84106 24.2966 9.22218L22.2927 11.2323Z" stroke="#505050" stroke-width="0.5"/>
<path d="M10.6471 0L10.6628 0.246476L7.85845 6.48221L8.03365 6.47085C8.7869 6.42087 9.36606 6.18121 9.77115 5.75073C10.1762 5.32025 10.4708 4.64556 10.655 3.72554L10.8436 3.71304L10.8067 6.53446L5.15567 6.90814L5.14228 6.70256L7.99905 0.42253L7.85063 0.431617C6.9445 0.491816 6.32405 0.683772 5.98927 1.00862C5.65449 1.33347 5.37886 1.99793 5.16348 3.00201L4.98828 3.01337L4.99609 0.372554L10.6471 0Z" fill="#505050"/>
<path d="M15.9577 6.53786C15.6107 5.76776 15.614 4.87159 15.97 3.84934C16.3249 2.82709 16.904 2.15467 17.7075 1.83323C18.511 1.51066 19.387 1.52088 20.3355 1.86276C22.2594 2.55562 22.8408 3.87092 22.0819 5.80979L18.4976 4.51948L18.3224 5.02379C18.0289 5.86885 17.9128 6.54581 17.9742 7.05239C18.0356 7.56011 18.3302 7.90881 18.8558 8.09736C19.8389 8.45174 20.6681 8.14847 21.3454 7.18869L21.5608 7.31023C21.1836 7.8736 20.7261 8.25183 20.186 8.44606C19.647 8.64029 18.9573 8.58577 18.1182 8.28364C17.0257 7.89064 16.3048 7.30909 15.9577 6.53786ZM18.6002 4.26505L19.9092 4.73643L20.1291 4.10263C20.3723 3.40409 20.4973 2.91341 20.5051 2.62945C20.5129 2.34663 20.3958 2.16035 20.1547 2.07403C19.9126 1.98657 19.6883 2.05926 19.4796 2.28984C19.2709 2.52041 19.0511 2.96793 18.8201 3.6324L18.6002 4.26505Z" fill="#505050"/>
<path d="M31.4681 9.66481C31.2237 9.43537 30.8632 9.39449 30.3856 9.54214C29.908 9.69094 29.4672 9.98625 29.0644 10.4292L26.6104 13.1291L27.3135 13.7913L27.1483 13.973L24.0605 11.0653L24.2257 10.8836L24.7703 11.3958L28.7988 6.9638L28.2542 6.45154L28.4194 6.26981L30.8041 8.51535L29.9247 9.48194C30.322 9.2207 30.726 9.11166 31.1389 9.1571C31.5507 9.20253 31.9122 9.37063 32.2224 9.66254C32.5327 9.95445 32.7034 10.2816 32.7369 10.6428C32.7692 11.004 32.6387 11.3481 32.3418 11.673C32.0461 11.999 31.7459 12.1807 31.4424 12.2182C31.1389 12.2557 30.8365 12.1341 30.5363 11.8513C30.2361 11.5685 30.1066 11.2595 30.1479 10.9245C30.1892 10.5894 30.4247 10.2941 30.8532 10.0374L31.2092 10.3724C31.6846 10.1873 31.7716 9.94991 31.4681 9.66481Z" fill="#505050"/>
<path d="M31.8408 18.8583C32.1343 18.0859 32.7726 17.4794 33.7546 17.0375C34.7366 16.5957 35.6182 16.5423 36.3971 16.8774C37.176 17.2124 37.7909 17.8985 38.2417 18.9355C38.6926 19.9725 38.783 20.8573 38.5163 21.5877C38.2484 22.318 37.6135 22.9086 36.6103 23.3596C34.5134 24.3023 33.0036 23.7105 32.0818 21.5854C31.6276 20.5393 31.5473 19.6306 31.8408 18.8583ZM34.9721 21.2162L36.0199 20.7449C36.8178 20.386 37.3802 20.0804 37.7083 19.8283C38.0364 19.5761 38.1313 19.291 37.9929 18.973C37.9125 18.789 37.7976 18.6629 37.6458 18.597C37.4941 18.53 37.2876 18.5255 37.0276 18.5822C36.6248 18.6731 36.0456 18.8889 35.289 19.2285L34.3271 19.6613C33.431 20.0645 32.9043 20.3337 32.7469 20.4689C32.5896 20.604 32.4657 20.7278 32.3764 20.838C32.2191 21.0186 32.199 21.2435 32.315 21.5104C32.4568 21.8364 32.7346 21.967 33.1475 21.9012C33.4433 21.8591 34.0514 21.6297 34.9721 21.2162Z" fill="#505050"/>
<path d="M37.4551 31.5558L37.4506 31.9533L38.4884 31.9658C39.3421 31.976 39.9157 31.934 40.2092 31.842C40.5027 31.7488 40.65 31.566 40.6533 31.2911C40.6556 31.1264 40.6143 30.9776 40.5306 30.8436C40.4469 30.7096 40.3308 30.6425 40.1824 30.6403C40.034 30.638 39.8833 30.6641 39.7294 30.7175L39.7249 31.0605C39.5352 31.1309 39.3075 31.165 39.0431 31.1628C38.7775 31.1593 38.5498 31.0424 38.359 30.8118C38.1682 30.5812 38.0744 30.2916 38.0789 29.944C38.0878 29.1569 38.465 28.7684 39.2116 28.7775C40.3174 28.79 40.8587 29.7532 40.8375 31.6648C40.8252 32.7529 40.6344 33.5037 40.2661 33.916C39.8979 34.3283 39.2272 34.5282 38.2574 34.5169L35.5201 34.4851C35.0525 34.4794 34.817 34.6089 34.8148 34.8747C34.8115 35.1859 35.2723 35.3744 36.1974 35.4403L36.1818 35.6459C35.3906 35.6005 34.8494 35.4426 34.5559 35.1734C34.2624 34.9042 34.1185 34.468 34.1263 33.8649C34.1386 32.7677 34.4778 32.1396 35.1451 31.9828C34.8048 31.8602 34.5548 31.6784 34.3963 31.4388C34.2368 31.1991 34.1598 30.8504 34.1653 30.3927C34.181 29.0387 34.7322 28.3686 35.8191 28.3811C36.4575 28.389 36.8927 28.6526 37.1248 29.1716C37.3569 29.6896 37.4674 30.4847 37.4551 31.5558ZM34.8996 31.0514C34.7646 31.1003 34.6954 31.1957 34.6943 31.3377C34.6932 31.4797 34.8059 31.6137 35.0335 31.7398C35.2612 31.8658 35.577 31.9317 35.9821 31.9363L37.2364 31.951L37.2375 31.8545C37.2442 31.2877 36.838 30.9992 36.02 30.989L35.8046 30.9867C35.3359 30.981 35.0346 31.0026 34.8996 31.0514Z" fill="#505050"/>
<path d="M39.3552 41.3533L37.9279 44.3247L36.8131 43.7704C37.1211 44.0862 37.3231 44.4371 37.4191 44.821C37.515 45.205 37.4302 45.6718 37.1658 46.2227C36.5542 47.4971 35.5733 47.7981 34.2253 47.1268L30.5796 45.3129L30.2481 46.0034L30.0305 45.8955L31.7066 42.4063L31.9242 42.5153L31.681 43.0207L35.618 44.9801C36.1023 45.2209 36.4315 45.3435 36.6044 45.3481C36.7774 45.3526 36.9057 45.2686 36.9883 45.0959C37.1144 44.8324 37.0564 44.5166 36.8142 44.1464C36.5721 43.7761 36.2083 43.4705 35.724 43.2297L32.3807 41.5657L32.1262 42.0962L31.9086 41.9871L33.5903 38.4854L33.8079 38.5944L33.4821 39.2725L38.8117 41.9247L39.1376 41.2466L39.3552 41.3533Z" fill="#505050"/>
<path d="M31.9467 53.6352L29.4861 55.8785L25.3661 51.1966L24.8037 51.7089L24.6418 51.5249L27.6247 48.8057L27.7865 48.9897L27.2341 49.4928L31.1923 53.9908L31.7849 53.4501L31.9467 53.6352ZM31.0506 55.7229C31.4055 55.3992 31.7391 55.2606 32.0516 55.3072C32.3641 55.3538 32.6397 55.5139 32.8807 55.7865C33.1206 56.0591 33.2367 56.359 33.2278 56.6849C33.22 57.0121 33.0481 57.3278 32.7133 57.6334C32.3786 57.9389 32.0538 58.09 31.7391 58.0888C31.4244 58.0877 31.1365 57.9389 30.8754 57.6425C30.6143 57.346 30.4904 57.0325 30.5016 56.7031C30.5127 56.3737 30.6957 56.0466 31.0506 55.7229Z" fill="#505050"/>
<path d="M23.8529 60.2469L20.7272 61.1499L20.3891 59.9357C20.3545 60.9159 19.8501 61.5463 18.877 61.828C17.9039 62.1086 17.1819 61.8042 16.7087 60.9137C16.6708 61.9518 16.1686 62.6106 15.2 62.89C13.929 63.2569 13.0887 62.706 12.678 61.2362L11.5699 57.2631L10.8434 57.4732L10.7776 57.2358L14.3698 56.1977L14.4356 56.4351L13.9814 56.5657L15.1777 60.8557C15.364 61.5247 15.5292 61.8996 15.6743 61.9825C15.7412 62.02 15.8171 62.0268 15.9042 62.0018C16.1552 61.9291 16.3271 61.694 16.4219 61.2953C16.5168 60.8966 16.49 60.4343 16.3427 59.9062L15.3049 56.1829L14.8384 56.3181L14.7726 56.0807L18.1059 55.1175L18.1717 55.3549L17.7175 55.4855L18.9138 59.7756C19.1002 60.4446 19.2653 60.8194 19.4104 60.9023C19.4774 60.9398 19.5532 60.9466 19.6403 60.9216C19.8824 60.8512 20.0487 60.6013 20.1391 60.1708C20.2295 59.7403 20.2016 59.2656 20.0576 58.7465L19.041 55.1027L18.5735 55.2379L18.5076 55.0005L22.0998 53.9624L22.1667 54.1997L21.4537 54.4053L23.074 60.214L23.7871 60.0084L23.8529 60.2469Z" fill="#505050"/>
<path d="M3.63457 59.0554L3.25404 58.9623L3.013 59.9902C2.81437 60.8353 2.72621 61.4134 2.75076 61.7258C2.77419 62.037 2.91703 62.2255 3.18039 62.2892C3.33774 62.3278 3.4895 62.3198 3.63681 62.2664C3.78299 62.2131 3.8745 62.1131 3.90909 61.9654C3.94369 61.8189 3.95261 61.6633 3.93587 61.4997L3.60779 61.4202C3.58213 61.2169 3.59998 60.9829 3.66136 60.7206C3.72273 60.4582 3.88566 60.2583 4.14902 60.1197C4.41238 59.9811 4.71033 59.9527 5.04287 60.0345C5.79501 60.2174 6.08403 60.6785 5.90995 61.4168C5.65217 62.5106 4.61101 62.8355 2.78312 62.3902C1.74308 62.1369 1.06683 61.7814 0.753251 61.3237C0.440791 60.866 0.396154 60.1572 0.622687 59.1963L1.25988 56.4873C1.36924 56.025 1.29671 55.7627 1.04339 55.7002C0.746555 55.6275 0.46311 56.0432 0.195287 56.9473L0 56.886C0.218722 56.1113 0.489892 55.6082 0.812395 55.3765C1.1349 55.1448 1.58462 55.0993 2.16155 55.239C3.21052 55.4946 3.73612 55.9705 3.73836 56.6679C3.93141 56.3578 4.16018 56.15 4.42577 56.0455C4.69136 55.941 5.04176 55.941 5.4792 56.0477C6.77256 56.3635 7.2937 57.0586 7.04038 58.1354C6.89197 58.7669 6.54268 59.1406 5.99364 59.2565C5.44349 59.3712 4.65788 59.3042 3.63457 59.0554ZM4.68355 56.6293C4.66681 56.4839 4.59092 56.3953 4.45478 56.3624C4.31975 56.3294 4.16576 56.4123 3.99502 56.61C3.82317 56.8076 3.69037 57.1075 3.59663 57.5073L3.30426 58.7488L3.39577 58.7715C3.93811 58.9032 4.30413 58.5648 4.49384 57.7549L4.54405 57.5414C4.65453 57.0791 4.70028 56.7747 4.68355 56.6293Z" fill="#505050"/>
</svg>
