<svg width="155" height="189" viewBox="0 0 155 189" fill="none" xmlns="http://www.w3.org/2000/svg">
<path d="M55.2483 65.3968C55.2483 62.4289 56.069 59.5836 56.5608 56.7554C57.0662 53.8488 57.1442 50.8468 58.1277 48.1344C59.1282 45.3743 60.5289 42.7574 61.9737 40.246C63.4321 37.7143 65.3042 35.4483 67.1662 33.2198C69.0349 30.9844 71.1241 28.974 73.349 27.0965C75.567 25.2258 77.9479 23.5867 80.4678 22.1215C82.9674 20.6699 85.3516 18.8299 88.1022 17.8281C90.8018 16.8399 93.8576 17.0034 96.7506 16.4957C99.5656 16.0016 102.377 15.5212 105.335 15.5212C108.292 15.5212 111.243 15.1975 114.058 15.6916C116.951 16.1993 119.772 17.1023 122.472 18.0904C125.219 19.0957 127.983 20.1861 130.479 21.6377C132.999 23.1029 135.343 24.9395 137.561 26.8102C139.786 28.6878 141.97 30.705 143.839 32.9369C145.701 35.1654 147.38 37.6291 148.838 40.1642C150.283 42.6756 151.229 45.4902 152.226 48.2503C153.21 50.9626 154.295 53.7261 154.804 56.6327C155.295 59.4609 154.709 62.4289 154.709 65.3968C154.709 68.3647 154.57 71.2066 154.074 74.0348C153.569 76.9414 153.311 79.8719 152.328 82.5843C151.327 85.3443 149.933 87.9204 148.489 90.4317C147.03 92.9635 145.175 95.1886 143.313 97.4171C141.444 99.6524 139.945 102.3 137.72 104.178C135.502 106.048 132.837 107.408 130.317 108.873C127.817 110.325 125.151 111.507 122.404 112.512C119.705 113.501 116.801 113.708 113.905 114.216C111.09 114.71 108.292 115.395 105.335 115.395C102.381 115.395 99.4944 115.194 96.6828 114.697C93.7898 114.189 91.1037 113.122 88.404 112.134C85.6569 111.129 83.0488 109.981 80.5492 108.529C78.0293 107.064 75.2516 105.943 73.0335 104.069C70.8087 102.191 68.7805 100.02 66.9118 97.7851C65.0499 95.5566 63.2286 93.1986 61.7702 90.6634C60.3254 88.1521 59.6607 85.2217 58.6602 82.4616C57.6766 79.7492 56.6354 77.0198 56.1301 74.1132C55.6383 71.285 55.2483 68.3647 55.2483 65.3968Z" fill="#D93A26"/>
<path d="M32.3587 0L32.4062 0.739428L23.8832 19.4466L24.4157 19.4125C26.705 19.2626 28.4652 18.5436 29.6963 17.2522C30.9274 15.9607 31.8228 13.9367 32.3824 11.1766L32.9556 11.1391L32.8437 19.6034L15.6689 20.7244L15.6282 20.1077L24.3105 1.26759L23.8595 1.29485C21.1055 1.47545 19.2198 2.05132 18.2024 3.02586C17.1849 4.00041 16.3472 5.9938 15.6926 9.00603L15.1602 9.04011L15.1839 1.11766L32.3587 0Z" fill="#232021"/>
<path d="M48.499 19.6136C47.4442 17.3033 47.4544 14.6148 48.5363 11.548C49.6148 8.48127 51.375 6.46402 53.8169 5.4997C56.2589 4.53197 58.9212 4.56264 61.804 5.58829C67.6511 7.66687 69.418 11.6128 67.1118 17.4294L56.2182 13.5584L55.6857 15.0714C54.7937 17.6066 54.441 19.6374 54.6275 21.1572C54.8141 22.6803 55.7094 23.7264 57.3068 24.2921C60.2948 25.3552 62.8147 24.4454 64.8734 21.5661L65.528 21.9307C64.3816 23.6208 62.9911 24.7555 61.3496 25.3382C59.7114 25.9209 57.6155 25.7573 55.065 24.8509C51.7447 23.6719 49.5538 21.9273 48.499 19.6136ZM56.5302 12.7952L60.5085 14.2093L61.1766 12.3079C61.916 10.2123 62.2958 8.74024 62.3195 7.88836C62.3433 7.03989 61.9872 6.48106 61.2546 6.22209C60.5186 5.95971 59.8369 6.17779 59.2027 6.86952C58.5685 7.56124 57.9004 8.9038 57.1983 10.8972L56.5302 12.7952Z" fill="#232021"/>
<path d="M95.6381 28.9944C94.8953 28.3061 93.7999 28.1835 92.3483 28.6264C90.8967 29.0728 89.557 29.9588 88.3327 31.2877L80.8747 39.3873L83.0114 41.3739L82.5094 41.9191L73.125 33.1959L73.6269 32.6507L75.282 34.1875L87.5255 20.8914L85.8704 19.3546L86.3724 18.8094L93.6201 25.5461L90.9476 28.4458C92.155 27.6621 93.3827 27.335 94.6376 27.4713C95.889 27.6076 96.9879 28.1119 97.9308 28.9876C98.8736 29.8634 99.3925 30.8447 99.4943 31.9283C99.5926 33.0119 99.1958 34.0444 98.2937 35.0189C97.3949 35.9969 96.4826 36.5421 95.5601 36.6545C94.6376 36.767 93.7185 36.4024 92.8061 35.5539C91.8938 34.7054 91.5004 33.7786 91.6259 32.7734C91.7514 31.7682 92.467 30.8822 93.7693 30.1121L94.8512 31.1173C96.296 30.5619 96.5606 29.8497 95.6381 28.9944Z" fill="#232021"/>
<path d="M96.7708 56.5748C97.6628 54.2577 99.6028 52.4381 102.587 51.1125C105.572 49.787 108.251 49.6269 110.618 50.6321C112.986 51.6373 114.855 53.6954 116.225 56.8065C117.595 59.9175 117.87 62.572 117.059 64.763C116.245 66.954 114.315 68.7259 111.266 70.0787C104.894 72.9069 100.305 71.1316 97.5034 64.7562C96.123 61.6179 95.8788 58.8919 96.7708 56.5748ZM106.287 63.6487L109.472 62.2346C111.897 61.1579 113.606 60.2412 114.604 59.4848C115.601 58.7283 115.889 57.873 115.468 56.9189C115.224 56.3669 114.875 55.9887 114.414 55.791C113.952 55.59 113.325 55.5764 112.535 55.7467C111.31 56.0193 109.55 56.6668 107.251 57.6856L104.327 58.9839C101.604 60.1935 100.003 61.0011 99.5247 61.4066C99.0465 61.8121 98.6701 62.1835 98.3988 62.5141C97.9205 63.0558 97.8595 63.7305 98.2122 64.5313C98.6429 65.5092 99.4874 65.9011 100.742 65.7035C101.641 65.5774 103.489 64.8891 106.287 63.6487Z" fill="#232021"/>
<path d="M113.834 94.6672L113.82 95.8599L116.974 95.8974C119.569 95.928 121.312 95.8019 122.204 95.5259C123.096 95.2465 123.544 94.6979 123.554 93.8733C123.561 93.3792 123.435 92.9328 123.181 92.5307C122.926 92.1287 122.574 91.9276 122.123 91.9208C121.672 91.914 121.214 91.9924 120.746 92.1525L120.732 93.1816C120.156 93.3928 119.464 93.4951 118.66 93.4882C117.853 93.478 117.161 93.127 116.581 92.4353C116.001 91.7436 115.716 90.8747 115.73 89.832C115.757 87.4706 116.903 86.3052 119.172 86.3325C122.533 86.37 124.178 89.2595 124.113 94.9944C124.076 98.2588 123.496 100.511 122.377 101.748C121.258 102.985 119.219 103.585 116.272 103.551L107.953 103.455C106.532 103.438 105.816 103.827 105.809 104.624C105.799 105.558 107.2 106.123 110.011 106.321L109.964 106.938C107.559 106.801 105.914 106.328 105.022 105.52C104.131 104.713 103.693 103.404 103.717 101.595C103.754 98.303 104.785 96.4187 106.813 95.9485C105.779 95.5805 105.019 95.0353 104.537 94.3163C104.053 93.5973 103.818 92.5512 103.835 91.178C103.883 87.1162 105.558 85.1058 108.862 85.1433C110.802 85.1671 112.124 85.9577 112.83 87.5149C113.535 89.0687 113.871 91.454 113.834 94.6672ZM106.067 93.1543C105.657 93.3008 105.446 93.5871 105.443 94.013C105.44 94.4389 105.782 94.841 106.474 95.2193C107.166 95.5975 108.126 95.7951 109.357 95.8088L113.169 95.8531L113.172 95.5634C113.193 93.8631 111.958 92.9976 109.472 92.9669L108.818 92.9601C107.393 92.943 106.477 93.0078 106.067 93.1543Z" fill="#232021"/>
<path d="M119.609 124.06L115.271 132.974L111.883 131.311C112.819 132.258 113.433 133.311 113.724 134.463C114.016 135.615 113.758 137.015 112.955 138.668C111.096 142.491 108.115 143.394 104.018 141.38L92.9377 135.939L91.9304 138.01L91.269 137.687L96.3631 127.219L97.0245 127.546L96.2851 129.062L108.251 134.94C109.722 135.663 110.723 136.031 111.249 136.044C111.774 136.058 112.164 135.806 112.415 135.288C112.799 134.497 112.622 133.55 111.886 132.439C111.15 131.328 110.045 130.412 108.573 129.689L98.4116 124.697L97.6384 126.289L96.977 125.961L102.088 115.456L102.749 115.783L101.759 117.817L117.957 125.774L118.947 123.74L119.609 124.06Z" fill="#232021"/>
<path d="M97.0931 160.906L89.6148 167.636L77.0932 153.59L75.3839 155.127L74.8921 154.575L83.9577 146.417L84.4495 146.969L82.7706 148.479L94.8004 161.972L96.6013 160.35L97.0931 160.906ZM94.3697 167.169C95.4482 166.198 96.4623 165.782 97.4119 165.922C98.3616 166.061 99.1993 166.542 99.9318 167.36C100.661 168.177 101.014 169.077 100.987 170.055C100.963 171.036 100.441 171.983 99.4231 172.9C98.4056 173.817 97.4187 174.27 96.4623 174.267C95.5059 174.263 94.6309 173.817 93.8372 172.927C93.0436 172.038 92.6672 171.098 92.7011 170.109C92.735 169.121 93.2912 168.14 94.3697 167.169Z" fill="#232021"/>
<path d="M72.4943 180.741L62.9946 183.45L61.967 179.807C61.8618 182.748 60.3289 184.639 57.3714 185.484C54.414 186.326 52.2197 185.412 50.7817 182.741C50.6664 185.855 49.1402 187.832 46.1963 188.67C42.3333 189.771 39.7795 188.118 38.5314 183.709L35.1636 171.789L32.9557 172.42L32.7556 171.708L43.673 168.593L43.8731 169.305L42.4927 169.697L46.1285 182.567C46.6949 184.574 47.1968 185.699 47.6377 185.947C47.8412 186.06 48.0718 186.08 48.3364 186.005C49.0995 185.787 49.6218 185.082 49.91 183.886C50.1983 182.69 50.1169 181.303 49.6692 179.719L46.5151 168.549L45.0974 168.954L44.8973 168.242L55.0279 165.353L55.228 166.065L53.8476 166.457L57.4834 179.327C58.0497 181.334 58.5517 182.458 58.9926 182.707C59.1961 182.819 59.4267 182.84 59.6912 182.765C60.4272 182.554 60.9326 181.804 61.2073 180.512C61.482 179.221 61.3972 177.797 60.9597 176.239L57.87 165.308L56.4489 165.714L56.2488 165.002L67.1662 161.887L67.3697 162.599L65.2025 163.216L70.127 180.642L72.2942 180.025L72.4943 180.741Z" fill="#232021"/>
<path d="M11.0463 177.166L9.88974 176.887L9.15717 179.971C8.55347 182.506 8.28554 184.24 8.36015 185.177C8.43138 186.111 8.86549 186.677 9.6659 186.867C10.1441 186.983 10.6054 186.959 11.053 186.799C11.4973 186.639 11.7754 186.339 11.8806 185.896C11.9857 185.457 12.0128 184.99 11.962 184.499L10.9649 184.261C10.8869 183.651 10.9411 182.949 11.1277 182.162C11.3142 181.375 11.8094 180.775 12.6098 180.359C13.4102 179.943 14.3157 179.858 15.3264 180.104C17.6123 180.652 18.4907 182.036 17.9616 184.25C17.1782 187.532 14.0139 188.506 8.45851 187.171C5.29759 186.411 3.24232 185.344 2.28929 183.971C1.33966 182.598 1.204 180.472 1.89248 177.589L3.82905 169.462C4.16142 168.075 3.94097 167.288 3.17109 167.101C2.26894 166.882 1.40749 168.13 0.59352 170.842L0 170.658C0.664742 168.334 1.48889 166.825 2.46904 166.129C3.4492 165.434 4.81599 165.298 6.56942 165.717C9.75747 166.484 11.3549 167.912 11.3617 170.004C11.9484 169.073 12.6437 168.45 13.4509 168.136C14.258 167.823 15.323 167.823 16.6525 168.143C20.5833 169.091 22.1671 171.176 21.3972 174.406C20.9462 176.301 19.8846 177.422 18.216 177.769C16.5439 178.114 14.1563 177.913 11.0463 177.166ZM14.2343 169.888C14.1834 169.452 13.9528 169.186 13.539 169.087C13.1287 168.988 12.6606 169.237 12.1417 169.83C11.6194 170.423 11.2158 171.322 10.9309 172.522L10.0424 176.246L10.3205 176.314C11.9688 176.71 13.0812 175.694 13.6577 173.265L13.8104 172.624C14.1461 171.237 14.2852 170.324 14.2343 169.888Z" fill="#232021"/>
</svg>
